<svg width="24" height="24" viewBox="0 0 24 24" fill="none" xmlns="http://www.w3.org/2000/svg">
<path fill-rule="evenodd" clip-rule="evenodd" d="M13.3623 17.0002C13.1003 17.0002 12.8393 16.8982 12.6433 16.6952L8.78028 12.6953C8.40228 12.3022 8.40728 11.6793 8.79328 11.2933L12.7933 7.29325C13.1833 6.90225 13.8163 6.90225 14.2073 7.29325C14.5973 7.68425 14.5973 8.31625 14.2073 8.70725L10.9023 12.0122L14.0813 15.3053C14.4653 15.7032 14.4543 16.3362 14.0573 16.7192C13.8623 16.9072 13.6123 17.0002 13.3623 17.0002Z" fill="white"/>
<mask id="mask0_717_6123" style="mask-type:luminance" maskUnits="userSpaceOnUse" x="8" y="7" width="7" height="10">
<path fill-rule="evenodd" clip-rule="evenodd" d="M13.3623 17.0002C13.1003 17.0002 12.8393 16.8982 12.6433 16.6952L8.78028 12.6953C8.40228 12.3022 8.40728 11.6793 8.79328 11.2933L12.7933 7.29325C13.1833 6.90225 13.8163 6.90225 14.2073 7.29325C14.5973 7.68425 14.5973 8.31625 14.2073 8.70725L10.9023 12.0122L14.0813 15.3053C14.4653 15.7032 14.4543 16.3362 14.0573 16.7192C13.8623 16.9072 13.6123 17.0002 13.3623 17.0002Z" fill="white"/>
</mask>
<g mask="url(#mask0_717_6123)">
</g>
</svg>
