<svg width="16" height="16" viewBox="0 0 16 16" fill="none" xmlns="http://www.w3.org/2000/svg">
<g clip-path="url(#clip0_717_6276)">
<path d="M8.00017 1.33398C6.68162 1.33398 5.39269 1.72498 4.29636 2.45752C3.20004 3.19006 2.34555 4.23125 1.84097 5.44943C1.33638 6.6676 1.20436 8.00805 1.4616 9.30125C1.71883 10.5945 2.35377 11.7823 3.28612 12.7147C4.21847 13.647 5.40636 14.282 6.69956 14.5392C7.99277 14.7965 9.33322 14.6644 10.5514 14.1598C11.7696 13.6553 12.8108 12.8008 13.5433 11.7045C14.2758 10.6081 14.6668 9.31919 14.6668 8.00065C14.6668 7.12517 14.4944 6.25827 14.1594 5.44943C13.8243 4.64059 13.3333 3.90566 12.7142 3.28661C12.0952 2.66755 11.3602 2.17649 10.5514 1.84145C9.74255 1.50642 8.87565 1.33398 8.00017 1.33398ZM10.8668 6.40732L7.82017 10.4073C7.75806 10.488 7.6783 10.5534 7.58701 10.5984C7.49572 10.6435 7.39531 10.6671 7.2935 10.6673C7.19224 10.6679 7.09218 10.6453 7.00093 10.6014C6.90967 10.5575 6.82961 10.4934 6.76683 10.414L5.14017 8.34065C5.08632 8.27149 5.04663 8.1924 5.02336 8.10789C5.00008 8.02339 4.99368 7.93513 5.00451 7.84816C5.01534 7.76118 5.0432 7.67719 5.0865 7.60097C5.12979 7.52476 5.18767 7.45783 5.25683 7.40398C5.39651 7.29525 5.57367 7.24645 5.74933 7.26833C5.83631 7.27916 5.9203 7.30702 5.99651 7.35031C6.07272 7.39361 6.13966 7.45149 6.1935 7.52065L7.28017 8.90732L9.80017 5.57398C9.85357 5.50395 9.92025 5.44511 9.99639 5.40084C10.0725 5.35657 10.1566 5.32773 10.2439 5.31597C10.3312 5.30421 10.42 5.30975 10.5051 5.33229C10.5903 5.35483 10.6701 5.39391 10.7402 5.44732C10.8102 5.50072 10.869 5.5674 10.9133 5.64354C10.9576 5.71968 10.9864 5.8038 10.9982 5.89108C11.0099 5.97837 11.0044 6.06712 10.9819 6.15226C10.9593 6.23741 10.9202 6.31728 10.8668 6.38732V6.40732Z" fill="black" fill-opacity="0.4"/>
</g>
<defs>
<clipPath id="clip0_717_6276">
<rect width="16" height="16" fill="white"/>
</clipPath>
</defs>
</svg>
