<svg width="24" height="24" viewBox="0 0 24 24" fill="none" xmlns="http://www.w3.org/2000/svg">
<g id="Icon/Outline/edit">
<path id="Mask" fill-rule="evenodd" clip-rule="evenodd" d="M16.0187 10.6792L13.3237 7.98416L15.2717 6.03516L17.9657 8.72916L16.0187 10.6792ZM9.07965 17.6252L6.10265 17.8962L6.36665 14.9402L11.9837 9.32316L14.6797 12.0192L9.07965 17.6252ZM19.4037 7.33816L19.4027 7.33716L16.6647 4.59916C15.9237 3.86016 14.6507 3.82516 13.9487 4.53016L4.95265 13.5262C4.62665 13.8512 4.42465 14.2832 4.38265 14.7402L4.00365 18.9102C3.97765 19.2052 4.08265 19.4972 4.29265 19.7072C4.48165 19.8962 4.73665 20.0002 4.99965 20.0002C5.03065 20.0002 5.06065 19.9992 5.09065 19.9962L9.26065 19.6172C9.71865 19.5752 10.1497 19.3742 10.4747 19.0492L19.4717 10.0522C20.1997 9.32216 20.1687 8.10416 19.4037 7.33816Z" fill="black"/>
<mask id="mask0_481_4989" style="mask-type:luminance" maskUnits="userSpaceOnUse" x="3" y="4" width="17" height="16">
<path id="Mask_2" fill-rule="evenodd" clip-rule="evenodd" d="M16.0187 10.6792L13.3237 7.98416L15.2717 6.03516L17.9657 8.72916L16.0187 10.6792ZM9.07965 17.6252L6.10265 17.8962L6.36665 14.9402L11.9837 9.32316L14.6797 12.0192L9.07965 17.6252ZM19.4037 7.33816L19.4027 7.33716L16.6647 4.59916C15.9237 3.86016 14.6507 3.82516 13.9487 4.53016L4.95265 13.5262C4.62665 13.8512 4.42465 14.2832 4.38265 14.7402L4.00365 18.9102C3.97765 19.2052 4.08265 19.4972 4.29265 19.7072C4.48165 19.8962 4.73665 20.0002 4.99965 20.0002C5.03065 20.0002 5.06065 19.9992 5.09065 19.9962L9.26065 19.6172C9.71865 19.5752 10.1497 19.3742 10.4747 19.0492L19.4717 10.0522C20.1997 9.32216 20.1687 8.10416 19.4037 7.33816Z" fill="white"/>
</mask>
<g mask="url(#mask0_481_4989)">
<g id="Icon/Color/Base">
<rect id="Base" width="100" height="100" fill="black"/>
</g>
</g>
</g>
</svg>
