<svg width="20" height="20" viewBox="0 0 20 20" fill="none" xmlns="http://www.w3.org/2000/svg">
<path fill-rule="evenodd" clip-rule="evenodd" d="M15.8334 15.0002H4.16675C3.70758 15.0002 3.33341 14.6268 3.33341 14.1668V6.04183L9.50008 10.6668C9.64841 10.7785 9.82425 10.8335 10.0001 10.8335C10.1759 10.8335 10.3517 10.7785 10.5001 10.6668L16.6667 6.04183V14.1668C16.6667 14.6268 16.2926 15.0002 15.8334 15.0002ZM15.2776 5.00016L10.0001 8.9585L4.72258 5.00016H15.2776ZM15.8334 3.3335H4.16675C2.78841 3.3335 1.66675 4.45516 1.66675 5.8335V14.1668C1.66675 15.5452 2.78841 16.6668 4.16675 16.6668H15.8334C17.2117 16.6668 18.3334 15.5452 18.3334 14.1668V5.8335C18.3334 4.45516 17.2117 3.3335 15.8334 3.3335Z" fill="#231F20"/>
<mask id="mask0_45_1705" style="mask-type:luminance" maskUnits="userSpaceOnUse" x="1" y="3" width="18" height="14">
<path fill-rule="evenodd" clip-rule="evenodd" d="M15.8334 15.0002H4.16675C3.70758 15.0002 3.33341 14.6268 3.33341 14.1668V6.04183L9.50008 10.6668C9.64841 10.7785 9.82425 10.8335 10.0001 10.8335C10.1759 10.8335 10.3517 10.7785 10.5001 10.6668L16.6667 6.04183V14.1668C16.6667 14.6268 16.2926 15.0002 15.8334 15.0002ZM15.2776 5.00016L10.0001 8.9585L4.72258 5.00016H15.2776ZM15.8334 3.3335H4.16675C2.78841 3.3335 1.66675 4.45516 1.66675 5.8335V14.1668C1.66675 15.5452 2.78841 16.6668 4.16675 16.6668H15.8334C17.2117 16.6668 18.3334 15.5452 18.3334 14.1668V5.8335C18.3334 4.45516 17.2117 3.3335 15.8334 3.3335Z" fill="white"/>
</mask>
<g mask="url(#mask0_45_1705)">
<rect width="83.3333" height="83.3333" fill="#0D1C2E"/>
</g>
</svg>
