<svg width="24" height="24" viewBox="0 0 24 24" fill="none" xmlns="http://www.w3.org/2000/svg">
<path fill-rule="evenodd" clip-rule="evenodd" d="M14.617 19.552C15.666 18.054 16.757 15.851 16.975 13H19.93C19.547 16.052 17.441 18.57 14.617 19.552ZM4.06934 13H7.06134C7.26734 15.862 8.34434 18.056 9.40734 19.561C6.57034 18.584 4.45434 16.061 4.06934 13ZM9.43834 4.42969C8.38634 5.92769 7.28534 8.13769 7.06534 11.0007H4.06934C4.45534 7.92869 6.58634 5.39769 9.43834 4.42969ZM9.0791 10.9995C9.3851 7.72748 11.0591 5.44948 12.0261 4.39648C13.0261 5.46748 14.6741 7.72448 14.9591 10.9995H9.0791ZM9.08 13H14.962C14.656 16.277 12.978 18.555 12.012 19.608C10.965 18.498 9.359 16.272 9.08 13ZM19.9304 11.0001H16.9784C16.7734 8.15106 15.7084 5.96406 14.6504 4.46106C17.4584 5.45106 19.5494 7.96006 19.9304 11.0001ZM22 12C22 6.496 17.529 2.018 12.028 2.002C12.024 2.002 12.02 2.001 12.015 2.001C12.011 2.001 12.005 2 12 2C6.486 2 2 6.487 2 12C2 17.514 6.486 22 12 22C12.006 22 12.011 21.999 12.015 21.999C12.017 21.999 12.018 22 12.02 22C12.023 22 12.026 21.998 12.028 21.998C17.529 21.983 22 17.504 22 12Z" fill="#231F20"/>
<mask id="mask0_45_1471" style="mask-type:luminance" maskUnits="userSpaceOnUse" x="2" y="2" width="20" height="20">
<path fill-rule="evenodd" clip-rule="evenodd" d="M14.617 19.552C15.666 18.054 16.757 15.851 16.975 13H19.93C19.547 16.052 17.441 18.57 14.617 19.552ZM4.06934 13H7.06134C7.26734 15.862 8.34434 18.056 9.40734 19.561C6.57034 18.584 4.45434 16.061 4.06934 13ZM9.43834 4.42969C8.38634 5.92769 7.28534 8.13769 7.06534 11.0007H4.06934C4.45534 7.92869 6.58634 5.39769 9.43834 4.42969ZM9.0791 10.9995C9.3851 7.72748 11.0591 5.44948 12.0261 4.39648C13.0261 5.46748 14.6741 7.72448 14.9591 10.9995H9.0791ZM9.08 13H14.962C14.656 16.277 12.978 18.555 12.012 19.608C10.965 18.498 9.359 16.272 9.08 13ZM19.9304 11.0001H16.9784C16.7734 8.15106 15.7084 5.96406 14.6504 4.46106C17.4584 5.45106 19.5494 7.96006 19.9304 11.0001ZM22 12C22 6.496 17.529 2.018 12.028 2.002C12.024 2.002 12.02 2.001 12.015 2.001C12.011 2.001 12.005 2 12 2C6.486 2 2 6.487 2 12C2 17.514 6.486 22 12 22C12.006 22 12.011 21.999 12.015 21.999C12.017 21.999 12.018 22 12.02 22C12.023 22 12.026 21.998 12.028 21.998C17.529 21.983 22 17.504 22 12Z" fill="white"/>
</mask>
<g mask="url(#mask0_45_1471)">
<rect width="100" height="100" fill="#0D1C2E"/>
</g>
</svg>
