<svg width="565" height="100"  viewBox="0 0 113 10" fill="none" xmlns="http://www.w3.org/2000/svg">
<path fill-rule="evenodd" clip-rule="evenodd" d="M10.0693 17.037C13.9827 17.037 17.1551 13.8864 17.1551 10C17.1551 6.11355 13.9827 2.96296 10.0693 2.96296C6.15592 2.96296 2.9835 6.11355 2.9835 10C2.9835 13.8864 6.15592 17.037 10.0693 17.037ZM10.0693 20C15.6304 20 20.1386 15.5228 20.1386 10C20.1386 4.47715 15.6304 0 10.0693 0C4.50818 0 0 4.47715 0 10C0 15.5228 4.50818 20 10.0693 20Z" fill="#FF6C46"/>
<path fill-rule="evenodd" clip-rule="evenodd" d="M17.9598 16.213C17.3095 17.0265 16.5343 17.7371 15.6631 18.3163C17.263 19.3798 19.187 20 21.2568 20C26.818 20 31.3261 15.5228 31.3261 10C31.3261 4.47715 26.818 0 21.2568 0C19.187 0 17.263 0.620222 15.6631 1.68374C16.5343 2.26288 17.3095 2.97348 17.9598 3.78696C18.943 3.27425 20.064 2.9835 21.2568 2.9835C25.1897 2.9835 28.3426 6.14429 28.3426 10C28.3426 13.8557 25.1897 17.0165 21.2568 17.0165C20.064 17.0165 18.943 16.7257 17.9598 16.213Z" fill="url(#paint0_linear_45_1585)"/>
<path d="M101.406 11.3754C101.406 10.2747 101.627 9.29838 102.069 8.4466C102.525 7.59482 103.134 6.9396 103.898 6.48095C104.674 6.02229 105.538 5.79297 106.489 5.79297C107.32 5.79297 108.043 5.95677 108.659 6.28438C109.289 6.61199 109.791 7.02478 110.166 7.52274V5.79297H112.999V17.0365H110.166V15.2674C109.805 15.7785 109.302 16.2044 108.659 16.5451C108.03 16.8727 107.3 17.0365 106.469 17.0365C105.532 17.0365 104.674 16.8006 103.898 16.3289C103.134 15.8571 102.525 15.1953 102.069 14.3436C101.627 13.4787 101.406 12.4893 101.406 11.3754ZM110.166 11.4147C110.166 10.7464 110.032 10.1764 109.764 9.70462C109.496 9.21976 109.135 8.85284 108.679 8.60385C108.224 8.34177 107.735 8.21072 107.213 8.21072C106.69 8.21072 106.208 8.33521 105.766 8.5842C105.324 8.83318 104.962 9.2001 104.681 9.68496C104.413 10.1567 104.279 10.7202 104.279 11.3754C104.279 12.0306 104.413 12.6072 104.681 13.1052C104.962 13.5901 105.324 13.9635 105.766 14.2256C106.222 14.4877 106.704 14.6188 107.213 14.6188C107.735 14.6188 108.224 14.4943 108.679 14.2453C109.135 13.9832 109.496 13.6163 109.764 13.1445C110.032 12.6597 110.166 12.0831 110.166 11.4147Z" fill="black"/>
<path d="M91.929 7.56251C92.2907 7.03834 92.7863 6.61244 93.4158 6.28483C94.0587 5.95722 94.7887 5.79342 95.6058 5.79342C96.5568 5.79342 97.414 6.02275 98.1775 6.4814C98.9544 6.94005 99.5638 7.59527 100.006 8.44705C100.461 9.28573 100.689 10.262 100.689 11.3759C100.689 12.4897 100.461 13.4791 100.006 14.344C99.5638 15.1958 98.9544 15.8576 98.1775 16.3293C97.414 16.8011 96.5568 17.037 95.6058 17.037C94.7753 17.037 94.0453 16.8797 93.4158 16.5652C92.7997 16.2376 92.3041 15.8183 91.929 15.3072V17.037H89.1162V2.96289H91.929V7.56251ZM97.8158 11.3759C97.8158 10.7207 97.6752 10.1572 97.3939 9.68542C97.126 9.20055 96.7644 8.83363 96.309 8.58465C95.867 8.33567 95.3848 8.21117 94.8624 8.21117C94.3534 8.21117 93.8712 8.34222 93.4158 8.60431C92.9738 8.85329 92.6121 9.22021 92.3309 9.70507C92.063 10.1899 91.929 10.76 91.929 11.4152C91.929 12.0704 92.063 12.6404 92.3309 13.1253C92.6121 13.6102 92.9738 13.9836 93.4158 14.2457C93.8712 14.4947 94.3534 14.6192 94.8624 14.6192C95.3848 14.6192 95.867 14.4882 96.309 14.2261C96.7644 13.964 97.126 13.5905 97.3939 13.1057C97.6752 12.6208 97.8158 12.0442 97.8158 11.3759Z" fill="black"/>
<path d="M75.3789 11.3754C75.3789 10.2747 75.5999 9.29838 76.0419 8.4466C76.4973 7.59482 77.1068 6.9396 77.8703 6.48095C78.6471 6.02229 79.5111 5.79297 80.4621 5.79297C81.2925 5.79297 82.0158 5.95677 82.6319 6.28438C83.2615 6.61199 83.7638 7.02478 84.1388 7.52274V5.79297H86.9717V17.0365H84.1388V15.2674C83.7772 15.7785 83.2749 16.2044 82.6319 16.5451C82.0024 16.8727 81.2724 17.0365 80.442 17.0365C79.5044 17.0365 78.6471 16.8006 77.8703 16.3289C77.1068 15.8571 76.4973 15.1953 76.0419 14.3436C75.5999 13.4787 75.3789 12.4893 75.3789 11.3754ZM84.1388 11.4147C84.1388 10.7464 84.0049 10.1764 83.737 9.70462C83.4691 9.21976 83.1075 8.85284 82.652 8.60385C82.1966 8.34177 81.7077 8.21072 81.1854 8.21072C80.663 8.21072 80.1808 8.33521 79.7388 8.5842C79.2968 8.83318 78.9351 9.2001 78.6538 9.68496C78.3859 10.1567 78.252 10.7202 78.252 11.3754C78.252 12.0306 78.3859 12.6072 78.6538 13.1052C78.9351 13.5901 79.2968 13.9635 79.7388 14.2256C80.1942 14.4877 80.6764 14.6188 81.1854 14.6188C81.7077 14.6188 82.1966 14.4943 82.652 14.2453C83.1075 13.9832 83.4691 13.6163 83.737 13.1445C84.0049 12.6597 84.1388 12.0831 84.1388 11.4147Z" fill="black"/>
<path d="M73.9261 2.96289V17.037H71.1133V2.96289H73.9261Z" fill="black"/>
<path d="M68.9368 2.96289V17.037H66.124V2.96289H68.9368Z" fill="black"/>
<path d="M58.8567 17.0365C57.7851 17.0365 56.8207 16.8072 55.9635 16.3485C55.1062 15.8768 54.4298 15.215 53.9342 14.3632C53.452 13.5114 53.2109 12.5286 53.2109 11.4147C53.2109 10.3009 53.4587 9.31804 53.9543 8.46626C54.4633 7.61447 55.1531 6.95926 56.0238 6.5006C56.8944 6.02885 57.8655 5.79297 58.937 5.79297C60.0086 5.79297 60.9797 6.02885 61.8503 6.5006C62.7209 6.95926 63.404 7.61447 63.8996 8.46626C64.4086 9.31804 64.6631 10.3009 64.6631 11.4147C64.6631 12.5286 64.4019 13.5114 63.8795 14.3632C63.3706 15.215 62.674 15.8768 61.79 16.3485C60.9194 16.8072 59.9416 17.0365 58.8567 17.0365ZM58.8567 14.6384C59.3656 14.6384 59.8411 14.5205 60.2832 14.2846C60.7386 14.0356 61.1002 13.6687 61.3681 13.1838C61.636 12.699 61.7699 12.1093 61.7699 11.4147C61.7699 10.3795 61.4886 9.58668 60.9261 9.0363C60.3769 8.47281 59.7005 8.19107 58.8968 8.19107C58.0932 8.19107 57.4168 8.47281 56.8676 9.0363C56.3318 9.58668 56.0639 10.3795 56.0639 11.4147C56.0639 12.45 56.3251 13.2493 56.8475 13.8128C57.3833 14.3632 58.053 14.6384 58.8567 14.6384Z" fill="black"/>
<path d="M38.4121 10.0098C38.4121 8.65437 38.7223 7.4437 39.3428 6.37778C39.9768 5.2987 40.8333 4.46307 41.9124 3.8709C43.0049 3.26556 44.2256 2.96289 45.5745 2.96289C47.1526 2.96289 48.5352 3.35768 49.7222 4.14724C50.9092 4.93681 51.7387 6.02905 52.2108 7.42396H48.9533C48.6296 6.76598 48.171 6.2725 47.5775 5.94351C46.9975 5.61453 46.3231 5.45003 45.5542 5.45003C44.7314 5.45003 43.9963 5.64085 43.3489 6.02247C42.7149 6.39094 42.2159 6.91732 41.8517 7.60161C41.501 8.2859 41.3256 9.08863 41.3256 10.0098C41.3256 10.9178 41.501 11.7205 41.8517 12.418C42.2159 13.1023 42.7149 13.6352 43.3489 14.0169C43.9963 14.3853 44.7314 14.5696 45.5542 14.5696C46.3231 14.5696 46.9975 14.4051 47.5775 14.0761C48.171 13.7339 48.6296 13.2339 48.9533 12.5759H52.2108C51.7387 13.984 50.9092 15.0828 49.7222 15.8724C48.5487 16.6488 47.1661 17.037 45.5745 17.037C44.2256 17.037 43.0049 16.7409 41.9124 16.1487C40.8333 15.5434 39.9768 14.7077 39.3428 13.6418C38.7223 12.5759 38.4121 11.3652 38.4121 10.0098Z" fill="black"/>
<defs>
<linearGradient id="paint0_linear_45_1585" x1="31.6782" y1="4.13305" x2="16.8431" y2="12.6661" gradientUnits="objectBoundingBox">
<stop stop-color="#3D5AD2"/>
<stop offset="1" stop-color="#213AA3"/>
</linearGradient>
</defs>
</svg>
