<svg width="320" height="410" viewBox="0 0 320 410" fill="none" xmlns="http://www.w3.org/2000/svg">
<path d="M248.227 273.273V327.085L281.911 254.923L248.227 273.273Z" fill="#0D1F13"/>
<path d="M250.913 274.761V313.635L276.703 260.378L250.913 274.761Z" fill="#A8D1E7"/>
<path d="M281.911 254.923L255.625 241.036L222.189 257.898L248.227 273.273L281.911 254.923Z" fill="#5E5E5E"/>
<path d="M248.227 273.273L222.189 257.898V310.966L248.227 327.085V273.273Z" fill="#4A4A4A"/>
<path d="M92.2488 314.843L164.568 387.392V409.661L92.2488 370.632V314.843Z" fill="#4A4A4A"/>
<path d="M164.568 387.392L236.887 348.592V370.862L164.568 409.661V387.392Z" fill="#0D1F13"/>
<path d="M92.2488 314.843L164.568 280.635L236.887 348.592L164.568 387.392L92.2488 314.843Z" fill="#F7E9A0"/>
<path d="M92.4783 281.094L164.798 242.524L237.117 281.094L164.798 319.894L92.4783 281.094Z" fill="#5E5E5E"/>
<path d="M164.798 319.894L237.117 281.094V336.883L164.798 375.683V319.894Z" fill="#0D1F13"/>
<path d="M92.4783 281.094L164.798 319.894V375.683L92.4783 303.594V281.094Z" fill="#4A4A4A"/>
<path d="M176.561 195.926L248.28 234.372V256.439L176.561 218.166V195.926Z" fill="#4A4A4A"/>
<path d="M248.28 234.372L320 196.099V218.166L248.28 256.439V234.372Z" fill="#0D1F13"/>
<path d="M176.561 195.926L248.28 157.308L320 196.099L248.28 234.372L176.561 195.926Z" fill="#6AFA9A"/>
<path d="M176.561 162.48L248.28 200.926V222.993L176.561 184.72V162.48Z" fill="#4A4A4A"/>
<path d="M248.28 200.926L320 162.652V184.72L248.28 222.993V200.926Z" fill="#0D1F13"/>
<path d="M176.561 162.48L248.28 123.862L320 162.652L248.28 200.926L176.561 162.48Z" fill="#F7E9A0"/>
<path d="M176.561 129.379L248.281 167.824V189.892L176.561 151.619V129.379Z" fill="#4A4A4A"/>
<path d="M248.281 167.824L320 129.551V151.619L248.281 189.892V167.824Z" fill="#0D1F13"/>
<path d="M176.561 129.379L248.281 90.7607L320 129.551L248.281 167.824L176.561 129.379Z" fill="#5E5E5E"/>
<path d="M202.78 191.84L131.114 153.423L161.606 136.885L233.1 175.302L202.78 191.84Z" fill="#5E5E5E"/>
<path d="M202.78 280.044L131.114 241.8V153.423L202.78 191.84V280.044Z" fill="#4A4A4A"/>
<path d="M202.78 280.044V191.84L233.1 175.302V263.506L202.78 280.044Z" fill="#0D1F13"/>
<path d="M211.394 265.573V251.275V197.008L224.487 189.945V258.682L211.394 265.573Z" fill="#A8D1E7"/>
<path d="M211.394 265.573L224.487 258.682L211.394 251.275V265.573Z" fill="#7085DA"/>
<path d="M161.435 213.789L89.7687 175.372L120.261 158.834L191.755 197.251L161.435 213.789Z" fill="#5E5E5E"/>
<path d="M161.435 301.993L89.7687 263.749V175.372L161.435 213.789V301.993Z" fill="#4A4A4A"/>
<path d="M161.434 301.993V213.789L191.754 197.251V285.455L161.434 301.993Z" fill="#0D1F13"/>
<path d="M170.048 287.522V273.224V218.957L183.141 211.894V280.631L170.048 287.522Z" fill="#F7E9A0"/>
<path d="M170.048 287.522L183.141 280.632L170.048 273.224V287.522Z" fill="#E2D591"/>
<path d="M164.039 57.2302L133.271 38.6048L167.939 18.5894L198.153 37.5341L164.039 57.2302Z" fill="#0D1F13"/>
<path d="M166.141 141.53L135.641 123.081L133.271 38.6048L164.039 57.2302L166.141 141.53Z" fill="#F7E9A0"/>
<path d="M166.141 141.53L164.039 57.2302L198.153 37.5341L201.067 121.366L166.141 141.53Z" fill="#A8D1E7"/>
<path d="M201.403 80.9789L170.636 62.3535L205.304 42.3382L235.518 61.2829L201.403 80.9789Z" fill="#0D1F13"/>
<path d="M203.506 165.279L173.006 146.83L170.636 62.3535L201.403 80.9789L203.506 165.279Z" fill="#6AFA9A"/>
<path d="M203.506 165.279L201.403 80.9789L235.518 61.2829L238.432 145.114L203.506 165.279Z" fill="#4A4A4A"/>
<path d="M122.109 81.4386L91.3419 62.8132L126.009 42.7978L156.224 61.7425L122.109 81.4386Z" fill="#0D1F13"/>
<path d="M124.212 165.739L93.7117 147.29L91.3419 62.8132L122.109 81.4386L124.212 165.739Z" fill="#5E5E5E"/>
<path d="M124.212 165.739L122.109 81.4386L156.224 61.7425L157.681 103.658L159.138 145.574L124.212 165.739Z" fill="#A8D1E7"/>
<path d="M159.597 105.116L128.829 86.4902L163.497 66.4748L193.711 85.4195L159.597 105.116Z" fill="#0D1F13"/>
<path d="M161.699 189.416L131.199 170.967L128.829 86.4902L159.597 105.116L161.699 189.416Z" fill="#5E5E5E"/>
<path d="M161.699 189.416L159.597 105.116L193.711 85.4195L196.625 169.251L161.699 189.416Z" fill="#4A4A4A"/>
<path d="M113.306 293.407L144.82 276.075V316.106L113.306 332.799V293.407Z" fill="#0D1F13"/>
<path d="M39.249 253.078L70.4762 235.889L144.82 276.075L113.306 293.407L39.249 253.078Z" fill="#F7E9A0"/>
<path d="M39.249 253.078L113.306 293.407V332.799L39.249 293.407V253.078Z" fill="#A8D1E7"/>
<path d="M74.0572 313.891L105.571 296.559V336.59L74.0572 353.284V313.891Z" fill="#0D1F13"/>
<path d="M0 273.562L31.2272 256.373L105.571 296.559L74.0572 313.891L0 273.562Z" fill="#F7E9A0"/>
<path d="M0 273.562L74.0572 313.891V353.284L0 313.891V273.562Z" fill="#4A4A4A"/>
<path d="M31.5137 244.991L3.8147e-05 227.658V267.689L31.5137 284.383V244.991Z" fill="#4A4A4A"/>
<path d="M105.571 204.661L74.3437 187.472L3.8147e-05 227.658L31.5137 244.991L105.571 204.661Z" fill="#5E5E5E"/>
<path d="M105.571 204.661L31.5137 244.991V284.383L68.5423 264.687L105.571 244.991V204.661Z" fill="#6AFA9A"/>
<path d="M70.7635 265.618L39.2498 248.286V288.316L70.7635 305.01V265.618Z" fill="#4A4A4A"/>
<path d="M144.821 225.289L113.593 208.1L39.2498 248.286L70.7635 265.618L144.821 225.289Z" fill="#5E5E5E"/>
<path d="M144.821 225.289L70.7635 265.618V305.01L107.792 285.314L144.821 265.618V225.289Z" fill="#0D1F13"/>
<path d="M76.1295 128.453L93.24 137.071L101.795 141.379L110.351 145.688L118.906 149.996L127.461 154.305L144.572 162.922L128.701 198.383L110.723 232.852L95.1619 224.421L86.3276 219.71L77.4934 214.998L68.6591 210.286L59.8248 205.575L40.6685 194.664L76.1295 128.453Z" fill="#4A4A4A"/>
<path d="M110.723 232.852L128.701 198.383L144.572 162.922V214.502L110.723 232.852Z" fill="#0D1F13"/>
<path d="M116.798 226.405L128.539 206.071L142.092 176.065V213.179L116.798 226.405Z" fill="#F7E9A0"/>
<path d="M116.798 226.405L142.092 213.179L128.539 206.071L116.798 226.405Z" fill="#E2D591"/>
</svg>
