<svg width="113" height="20" viewBox="0 0 113 20" fill="none" xmlns="http://www.w3.org/2000/svg">
<path fill-rule="evenodd" clip-rule="evenodd" d="M10.0693 17.037C13.9827 17.037 17.1551 13.8864 17.1551 10C17.1551 6.11355 13.9827 2.96296 10.0693 2.96296C6.15592 2.96296 2.9835 6.11355 2.9835 10C2.9835 13.8864 6.15592 17.037 10.0693 17.037ZM10.0693 20C15.6304 20 20.1386 15.5228 20.1386 10C20.1386 4.47715 15.6304 0 10.0693 0C4.50818 0 0 4.47715 0 10C0 15.5228 4.50818 20 10.0693 20Z" fill="#FF6C46"/>
<path fill-rule="evenodd" clip-rule="evenodd" d="M17.9598 16.213C17.3095 17.0265 16.5343 17.7371 15.6631 18.3163C17.263 19.3798 19.187 20 21.2568 20C26.818 20 31.3261 15.5228 31.3261 10C31.3261 4.47715 26.818 0 21.2568 0C19.187 0 17.263 0.620222 15.6631 1.68374C16.5343 2.26288 17.3095 2.97348 17.9598 3.78696C18.943 3.27425 20.064 2.9835 21.2568 2.9835C25.1897 2.9835 28.3426 6.14429 28.3426 10C28.3426 13.8557 25.1897 17.0165 21.2568 17.0165C20.064 17.0165 18.943 16.7257 17.9598 16.213Z" fill="url(#paint0_linear_193_2375)"/>
<path d="M101.406 11.3755C101.406 10.2748 101.627 9.29851 102.069 8.44672C102.525 7.59494 103.134 6.93972 103.898 6.48107C104.674 6.02242 105.538 5.79309 106.489 5.79309C107.32 5.79309 108.043 5.9569 108.659 6.2845C109.289 6.61211 109.791 7.0249 110.166 7.52287V5.79309H112.999V17.0366H110.166V15.2675C109.805 15.7786 109.302 16.2045 108.659 16.5452C108.03 16.8728 107.3 17.0366 106.469 17.0366C105.532 17.0366 104.674 16.8008 103.898 16.329C103.134 15.8572 102.525 15.1955 102.069 14.3437C101.627 13.4788 101.406 12.4894 101.406 11.3755ZM110.166 11.4149C110.166 10.7465 110.032 10.1765 109.764 9.70474C109.496 9.21988 109.135 8.85296 108.679 8.60398C108.224 8.34189 107.735 8.21084 107.213 8.21084C106.69 8.21084 106.208 8.33534 105.766 8.58432C105.324 8.8333 104.962 9.20022 104.681 9.68509C104.413 10.1568 104.279 10.7203 104.279 11.3755C104.279 12.0308 104.413 12.6074 104.681 13.1053C104.962 13.5902 105.324 13.9637 105.766 14.2257C106.222 14.4878 106.704 14.6189 107.213 14.6189C107.735 14.6189 108.224 14.4944 108.679 14.2454C109.135 13.9833 109.496 13.6164 109.764 13.1446C110.032 12.6598 110.166 12.0832 110.166 11.4149Z" fill="black"/>
<path d="M91.929 7.56263C92.2907 7.03846 92.7863 6.61257 93.4158 6.28496C94.0587 5.95735 94.7887 5.79354 95.6058 5.79354C96.5568 5.79354 97.414 6.02287 98.1775 6.48152C98.9544 6.94017 99.5638 7.59539 100.006 8.44717C100.461 9.28585 100.689 10.2621 100.689 11.376C100.689 12.4899 100.461 13.4792 100.006 14.3441C99.5638 15.1959 98.9544 15.8577 98.1775 16.3294C97.414 16.8012 96.5568 17.0371 95.6058 17.0371C94.7753 17.0371 94.0453 16.8798 93.4158 16.5653C92.7997 16.2377 92.3041 15.8184 91.929 15.3073V17.0371H89.1162V2.96301H91.929V7.56263ZM97.8158 11.376C97.8158 10.7208 97.6752 10.1573 97.3939 9.68554C97.126 9.20068 96.7644 8.83375 96.309 8.58477C95.867 8.33579 95.3848 8.2113 94.8624 8.2113C94.3534 8.2113 93.8712 8.34234 93.4158 8.60443C92.9738 8.85341 92.6121 9.22033 92.3309 9.70519C92.063 10.1901 91.929 10.7601 91.929 11.4153C91.929 12.0705 92.063 12.6406 92.3309 13.1254C92.6121 13.6103 92.9738 13.9838 93.4158 14.2459C93.8712 14.4948 94.3534 14.6193 94.8624 14.6193C95.3848 14.6193 95.867 14.4883 96.309 14.2262C96.7644 13.9641 97.126 13.5906 97.3939 13.1058C97.6752 12.6209 97.8158 12.0443 97.8158 11.376Z" fill="black"/>
<path d="M75.3789 11.3755C75.3789 10.2748 75.5999 9.29851 76.0419 8.44672C76.4973 7.59494 77.1068 6.93972 77.8703 6.48107C78.6471 6.02242 79.5111 5.79309 80.4621 5.79309C81.2925 5.79309 82.0158 5.9569 82.6319 6.2845C83.2615 6.61211 83.7638 7.0249 84.1388 7.52287V5.79309H86.9717V17.0366H84.1388V15.2675C83.7772 15.7786 83.2749 16.2045 82.6319 16.5452C82.0024 16.8728 81.2724 17.0366 80.442 17.0366C79.5044 17.0366 78.6471 16.8008 77.8703 16.329C77.1068 15.8572 76.4973 15.1955 76.0419 14.3437C75.5999 13.4788 75.3789 12.4894 75.3789 11.3755ZM84.1388 11.4149C84.1388 10.7465 84.0049 10.1765 83.737 9.70474C83.4691 9.21988 83.1075 8.85296 82.652 8.60398C82.1966 8.34189 81.7077 8.21084 81.1854 8.21084C80.663 8.21084 80.1808 8.33534 79.7388 8.58432C79.2968 8.8333 78.9351 9.20022 78.6538 9.68509C78.3859 10.1568 78.252 10.7203 78.252 11.3755C78.252 12.0308 78.3859 12.6074 78.6538 13.1053C78.9351 13.5902 79.2968 13.9637 79.7388 14.2257C80.1942 14.4878 80.6764 14.6189 81.1854 14.6189C81.7077 14.6189 82.1966 14.4944 82.652 14.2454C83.1075 13.9833 83.4691 13.6164 83.737 13.1446C84.0049 12.6598 84.1388 12.0832 84.1388 11.4149Z" fill="black"/>
<path d="M73.9261 2.96301V17.0371H71.1133V2.96301H73.9261Z" fill="black"/>
<path d="M68.9368 2.96301V17.0371H66.124V2.96301H68.9368Z" fill="black"/>
<path d="M58.8567 17.0366C57.7851 17.0366 56.8207 16.8073 55.9635 16.3486C55.1062 15.8769 54.4298 15.2151 53.9342 14.3633C53.452 13.5116 53.2109 12.5287 53.2109 11.4149C53.2109 10.301 53.4587 9.31816 53.9543 8.46638C54.4633 7.6146 55.1531 6.95938 56.0238 6.50073C56.8944 6.02897 57.8655 5.79309 58.937 5.79309C60.0086 5.79309 60.9797 6.02897 61.8503 6.50073C62.7209 6.95938 63.404 7.6146 63.8996 8.46638C64.4086 9.31816 64.6631 10.301 64.6631 11.4149C64.6631 12.5287 64.4019 13.5116 63.8795 14.3633C63.3706 15.2151 62.674 15.8769 61.79 16.3486C60.9194 16.8073 59.9416 17.0366 58.8567 17.0366ZM58.8567 14.6385C59.3656 14.6385 59.8411 14.5206 60.2832 14.2847C60.7386 14.0357 61.1002 13.6688 61.3681 13.1839C61.636 12.6991 61.7699 12.1094 61.7699 11.4149C61.7699 10.3796 61.4886 9.5868 60.9261 9.03642C60.3769 8.47293 59.7005 8.19119 58.8968 8.19119C58.0932 8.19119 57.4168 8.47293 56.8676 9.03642C56.3318 9.5868 56.0639 10.3796 56.0639 11.4149C56.0639 12.4501 56.3251 13.2495 56.8475 13.813C57.3833 14.3633 58.053 14.6385 58.8567 14.6385Z" fill="black"/>
<path d="M38.4121 10.0099C38.4121 8.65449 38.7223 7.44382 39.3428 6.3779C39.9768 5.29882 40.8333 4.46319 41.9124 3.87102C43.0049 3.26568 44.2256 2.96301 45.5745 2.96301C47.1526 2.96301 48.5352 3.3578 49.7222 4.14737C50.9092 4.93694 51.7387 6.02917 52.2108 7.42408H48.9533C48.6296 6.7661 48.171 6.27262 47.5775 5.94364C46.9975 5.61465 46.3231 5.45016 45.5542 5.45016C44.7314 5.45016 43.9963 5.64097 43.3489 6.02259C42.7149 6.39106 42.2159 6.91744 41.8517 7.60173C41.501 8.28603 41.3256 9.08876 41.3256 10.0099C41.3256 10.9179 41.501 11.7207 41.8517 12.4181C42.2159 13.1024 42.7149 13.6354 43.3489 14.017C43.9963 14.3855 44.7314 14.5697 45.5542 14.5697C46.3231 14.5697 46.9975 14.4052 47.5775 14.0762C48.171 13.7341 48.6296 13.234 48.9533 12.576H52.2108C51.7387 13.9841 50.9092 15.0829 49.7222 15.8725C48.5487 16.6489 47.1661 17.0371 45.5745 17.0371C44.2256 17.0371 43.0049 16.741 41.9124 16.1488C40.8333 15.5435 39.9768 14.7079 39.3428 13.6419C38.7223 12.576 38.4121 11.3653 38.4121 10.0099Z" fill="black"/>
<defs>
<linearGradient id="paint0_linear_193_2375" x1="31.6782" y1="4.13305" x2="16.8431" y2="12.6661" gradientUnits="userSpaceOnUse">
<stop stop-color="#3D5AD2"/>
<stop offset="1" stop-color="#213AA3"/>
</linearGradient>
</defs>
</svg>
