<svg width="24" height="24" viewBox="0 0 24 24" fill="none" xmlns="http://www.w3.org/2000/svg">
<path fill-rule="evenodd" clip-rule="evenodd" d="M3.93549 6H20.0645C20.5795 6 21.0005 6.421 21.0005 6.936V7.064C21.0005 7.579 20.5795 8 20.0645 8H3.93549C3.42049 8 3.00049 7.579 3.00049 7.064V6.936C3.00049 6.421 3.42049 6 3.93549 6ZM16.9967 11H4.0013C3.44951 11 2.99951 11.421 2.99951 11.936V12.064C2.99951 12.579 3.44951 13 4.0013 13H16.9967C17.5484 13 17.9995 12.579 17.9995 12.064V11.936C17.9995 11.421 17.5484 11 16.9967 11ZM13.4275 16H3.5709C3.25618 16 2.99951 16.421 2.99951 16.936V17.064C2.99951 17.579 3.25618 18 3.5709 18H13.4275C13.7422 18 13.9995 17.579 13.9995 17.064V16.936C13.9995 16.421 13.7422 16 13.4275 16Z"/>
</svg>
