<svg width="24" height="24" viewBox="0 0 24 24" fill="none" xmlns="http://www.w3.org/2000/svg">
<path fill-rule="evenodd" clip-rule="evenodd" d="M5.99389 18.2508L8.61796 13.0019L16.493 13.0012L5.99389 18.2508ZM16.493 11.0015L8.61867 11.0015L5.99389 5.75193L16.493 11.0015ZM21.4654 12.6646C21.5276 12.5953 21.5792 12.5197 21.6188 12.4362C21.6337 12.4072 21.6471 12.3782 21.6584 12.3471C21.7001 12.2375 21.7284 12.123 21.7284 12.0013C21.7284 11.8797 21.7001 11.7652 21.6577 11.6549C21.6471 11.6245 21.6344 11.5962 21.6195 11.5672C21.5785 11.4823 21.5269 11.4053 21.4633 11.3345C21.4484 11.3183 21.4378 11.3006 21.4215 11.2843C21.3494 11.215 21.2681 11.1535 21.1762 11.1069L4.20561 2.62157C3.81953 2.42924 3.35567 2.50419 3.05091 2.80895C2.74615 3.11372 2.67049 3.57829 2.86353 3.96366L6.88201 12.0013L2.86353 20.0404C2.67119 20.4251 2.74615 20.889 3.05091 21.1937C3.35567 21.4985 3.81953 21.5734 4.2042 21.3811L21.1748 12.8958C21.2674 12.8485 21.3487 12.7884 21.4201 12.7183C21.4378 12.7021 21.4491 12.6823 21.4654 12.6646Z" fill="black" />
<mask id="mask0_717_6149" style="mask-type:luminance" maskUnits="userSpaceOnUse" x="2" y="2" width="20" height="20">
<path fill-rule="evenodd" clip-rule="evenodd" d="M5.99389 18.2508L8.61796 13.0019L16.493 13.0012L5.99389 18.2508ZM16.493 11.0015L8.61867 11.0015L5.99389 5.75193L16.493 11.0015ZM21.4654 12.6646C21.5276 12.5953 21.5792 12.5197 21.6188 12.4362C21.6337 12.4072 21.6471 12.3782 21.6584 12.3471C21.7001 12.2375 21.7284 12.123 21.7284 12.0013C21.7284 11.8797 21.7001 11.7652 21.6577 11.6549C21.6471 11.6245 21.6344 11.5962 21.6195 11.5672C21.5785 11.4823 21.5269 11.4053 21.4633 11.3345C21.4484 11.3183 21.4378 11.3006 21.4215 11.2843C21.3494 11.215 21.2681 11.1535 21.1762 11.1069L4.20561 2.62157C3.81953 2.42924 3.35567 2.50419 3.05091 2.80895C2.74615 3.11372 2.67049 3.57829 2.86353 3.96366L6.88201 12.0013L2.86353 20.0404C2.67119 20.4251 2.74615 20.889 3.05091 21.1937C3.35567 21.4985 3.81953 21.5734 4.2042 21.3811L21.1748 12.8958C21.2674 12.8485 21.3487 12.7884 21.4201 12.7183C21.4378 12.7021 21.4491 12.6823 21.4654 12.6646Z" fill="white"/>
</mask>
<g mask="url(#mask0_717_6149)">
</g>
</svg>
