<svg width="16" height="16" viewBox="0 0 16 16" fill="none" xmlns="http://www.w3.org/2000/svg">
<g>
<path fill-rule="evenodd" clip-rule="evenodd" d="M12.0013 6.66667C12.0013 6.29933 11.7026 6 11.3346 6C10.9666 6 10.668 6.29933 10.668 6.66667C10.668 7.034 10.9666 7.33333 11.3346 7.33333C11.7026 7.33333 12.0013 7.034 12.0013 6.66667ZM13.334 6.66667C13.334 7.76933 12.4367 8.66667 11.334 8.66667C10.2313 8.66667 9.33398 7.76933 9.33398 6.66667C9.33398 5.564 10.2313 4.66667 11.334 4.66667C12.4367 4.66667 13.334 5.564 13.334 6.66667ZM7.33464 4.66671C7.33464 3.93137 6.73664 3.33337 6.0013 3.33337C5.26597 3.33337 4.66797 3.93137 4.66797 4.66671C4.66797 5.40204 5.26597 6.00004 6.0013 6.00004C6.73664 6.00004 7.33464 5.40204 7.33464 4.66671ZM8.66732 4.66667C8.66732 6.13733 7.47132 7.33333 6.00065 7.33333C4.52998 7.33333 3.33398 6.13733 3.33398 4.66667C3.33398 3.196 4.52998 2 6.00065 2C7.47132 2 8.66732 3.196 8.66732 4.66667ZM9.29398 10.0307C9.87332 9.58267 10.5867 9.33333 11.334 9.33333C13.172 9.33333 14.6673 10.8287 14.6673 12.6667C14.6673 13.0347 14.3693 13.3333 14.0007 13.3333C13.632 13.3333 13.334 13.0347 13.334 12.6667C13.334 11.564 12.4367 10.6667 11.334 10.6667C10.8787 10.6667 10.446 10.8227 10.0967 11.0993C10.4593 11.7633 10.6673 12.5247 10.6673 13.3333C10.6673 13.7013 10.3693 14 10.0007 14C9.63198 14 9.33398 13.7013 9.33398 13.3333C9.33398 11.4953 7.83865 10 6.00065 10C4.16265 10 2.66732 11.4953 2.66732 13.3333C2.66732 13.7013 2.36932 14 2.00065 14C1.63198 14 1.33398 13.7013 1.33398 13.3333C1.33398 10.76 3.42798 8.66667 6.00065 8.66667C7.28532 8.66667 8.44932 9.18867 9.29398 10.0307Z" fill="currentColor"/>
<mask id="mask0_1_976" style="mask-type:luminance" maskUnits="userSpaceOnUse" x="1" y="2" width="14" height="12">
<path fill-rule="evenodd" clip-rule="evenodd" d="M12.0013 6.66667C12.0013 6.29933 11.7026 6 11.3346 6C10.9666 6 10.668 6.29933 10.668 6.66667C10.668 7.034 10.9666 7.33333 11.3346 7.33333C11.7026 7.33333 12.0013 7.034 12.0013 6.66667ZM13.334 6.66667C13.334 7.76933 12.4367 8.66667 11.334 8.66667C10.2313 8.66667 9.33398 7.76933 9.33398 6.66667C9.33398 5.564 10.2313 4.66667 11.334 4.66667C12.4367 4.66667 13.334 5.564 13.334 6.66667ZM7.33464 4.66671C7.33464 3.93137 6.73664 3.33337 6.0013 3.33337C5.26597 3.33337 4.66797 3.93137 4.66797 4.66671C4.66797 5.40204 5.26597 6.00004 6.0013 6.00004C6.73664 6.00004 7.33464 5.40204 7.33464 4.66671ZM8.66732 4.66667C8.66732 6.13733 7.47132 7.33333 6.00065 7.33333C4.52998 7.33333 3.33398 6.13733 3.33398 4.66667C3.33398 3.196 4.52998 2 6.00065 2C7.47132 2 8.66732 3.196 8.66732 4.66667ZM9.29398 10.0307C9.87332 9.58267 10.5867 9.33333 11.334 9.33333C13.172 9.33333 14.6673 10.8287 14.6673 12.6667C14.6673 13.0347 14.3693 13.3333 14.0007 13.3333C13.632 13.3333 13.334 13.0347 13.334 12.6667C13.334 11.564 12.4367 10.6667 11.334 10.6667C10.8787 10.6667 10.446 10.8227 10.0967 11.0993C10.4593 11.7633 10.6673 12.5247 10.6673 13.3333C10.6673 13.7013 10.3693 14 10.0007 14C9.63198 14 9.33398 13.7013 9.33398 13.3333C9.33398 11.4953 7.83865 10 6.00065 10C4.16265 10 2.66732 11.4953 2.66732 13.3333C2.66732 13.7013 2.36932 14 2.00065 14C1.63198 14 1.33398 13.7013 1.33398 13.3333C1.33398 10.76 3.42798 8.66667 6.00065 8.66667C7.28532 8.66667 8.44932 9.18867 9.29398 10.0307Z" fill="white"/>
</mask>
<g mask="url(#mask0_1_976)">
<rect width="66.6667" height="66.6667" fill="currentColor"/>
</g>
</g>
</svg>
