<svg width="24" height="24" viewBox="0 0 24 24" fill="none" xmlns="http://www.w3.org/2000/svg">
<path fill-rule="evenodd" clip-rule="evenodd" d="M12 11C11.173 11 10.5 10.327 10.5 9.5C10.5 8.673 11.173 8 12 8C12.827 8 13.5 8.673 13.5 9.5C13.5 10.327 12.827 11 12 11ZM12 6C10.07 6 8.5 7.57 8.5 9.5C8.5 11.43 10.07 13 12 13C13.93 13 15.5 11.43 15.5 9.5C15.5 7.57 13.93 6 12 6ZM12 19.646C10.325 18.062 6 13.615 6 9.922C6 6.657 8.691 4 12 4C15.309 4 18 6.657 18 9.922C18 13.615 13.675 18.062 12 19.646ZM12 2C7.589 2 4 5.553 4 9.922C4 15.397 11.049 21.501 11.349 21.758C11.537 21.919 11.768 22 12 22C12.232 22 12.463 21.919 12.651 21.758C12.951 21.501 20 15.397 20 9.922C20 5.553 16.411 2 12 2Z" fill="#231F20"/>
<mask id="mask0_45_1468" style="mask-type:luminance" maskUnits="userSpaceOnUse" x="4" y="2" width="16" height="20">
<path fill-rule="evenodd" clip-rule="evenodd" d="M12 11C11.173 11 10.5 10.327 10.5 9.5C10.5 8.673 11.173 8 12 8C12.827 8 13.5 8.673 13.5 9.5C13.5 10.327 12.827 11 12 11ZM12 6C10.07 6 8.5 7.57 8.5 9.5C8.5 11.43 10.07 13 12 13C13.93 13 15.5 11.43 15.5 9.5C15.5 7.57 13.93 6 12 6ZM12 19.646C10.325 18.062 6 13.615 6 9.922C6 6.657 8.691 4 12 4C15.309 4 18 6.657 18 9.922C18 13.615 13.675 18.062 12 19.646ZM12 2C7.589 2 4 5.553 4 9.922C4 15.397 11.049 21.501 11.349 21.758C11.537 21.919 11.768 22 12 22C12.232 22 12.463 21.919 12.651 21.758C12.951 21.501 20 15.397 20 9.922C20 5.553 16.411 2 12 2Z" fill="white"/>
</mask>
<g mask="url(#mask0_45_1468)">
<rect width="100" height="100" fill="#0D1C2E"/>
</g>
</svg>
