<svg width="16" height="16" viewBox="0 0 16 16" fill="none" xmlns="http://www.w3.org/2000/svg">
<path d="M4.00017 9.66667L3.48871 9.23907C3.32266 9.43766 3.2866 9.7144 3.39622 9.94893C3.50583 10.1835 3.7413 10.3333 4.00017 10.3333V9.66667ZM12.0002 9.66667V10.3333C12.259 10.3333 12.4945 10.1835 12.6041 9.94893C12.7138 9.7144 12.6777 9.43766 12.5116 9.23907L12.0002 9.66667ZM7.3335 13.6667C7.3335 14.0349 7.63197 14.3333 8.00017 14.3333C8.36837 14.3333 8.66684 14.0349 8.66684 13.6667H7.3335ZM4.99954 3.80607C5.16122 4.44816 5.3335 5.42395 5.3335 6.66667H6.66684C6.66684 5.30053 6.47745 4.21495 6.29252 3.48051L4.99954 3.80607ZM5.3335 6.66667C5.3335 6.59559 5.35256 6.59191 5.30459 6.70033C5.2659 6.78773 5.20359 6.90413 5.11736 7.0466C4.94572 7.33013 4.70993 7.66687 4.46474 7.9974C4.22135 8.32553 3.97689 8.63653 3.79262 8.86627C3.70069 8.98087 3.62419 9.07473 3.57089 9.1396C3.54425 9.17207 3.52343 9.19727 3.5094 9.21413C3.50239 9.2226 3.49708 9.229 3.49359 9.2332C3.49184 9.23527 3.48974 9.2378 3.48974 9.2378L3.48871 9.23907C3.48871 9.23907 3.48871 9.23907 4.00017 9.66667C4.51163 10.0943 4.5117 10.0942 4.5117 10.0942L4.5122 10.0936L4.5135 10.0921C4.51461 10.0907 4.51619 10.0888 4.51822 10.0864C4.5223 10.0815 4.52822 10.0743 4.53586 10.0651C4.55113 10.0467 4.57328 10.0199 4.60132 9.9858C4.6574 9.91747 4.73715 9.81967 4.83272 9.70053C5.02345 9.46273 5.27899 9.13773 5.5356 8.7918C5.79041 8.44833 6.05462 8.073 6.25798 7.73707C6.35925 7.5698 6.45319 7.3996 6.52388 7.23987C6.58528 7.10113 6.66684 6.88967 6.66684 6.66667H5.3335ZM12.0002 9.66667C12.5116 9.23907 12.5116 9.23907 12.5116 9.23907L12.5106 9.2378C12.5106 9.2378 12.5085 9.23527 12.5068 9.2332C12.5032 9.229 12.498 9.2226 12.491 9.21413C12.4769 9.19727 12.4561 9.17207 12.4294 9.1396C12.3762 9.07473 12.2996 8.98087 12.2077 8.86627C12.0234 8.63653 11.779 8.32553 11.5356 7.9974C11.2904 7.66687 11.0546 7.33013 10.883 7.0466C10.7968 6.90413 10.7344 6.78773 10.6958 6.70033C10.6478 6.59191 10.6668 6.59559 10.6668 6.66667H9.3335C9.3335 6.88973 9.41504 7.10113 9.47644 7.23987C9.54717 7.3996 9.6411 7.5698 9.74237 7.73707C9.9457 8.073 10.2099 8.44833 10.4648 8.7918C10.7214 9.13773 10.9769 9.46273 11.1676 9.70053C11.2632 9.81967 11.343 9.91747 11.399 9.9858C11.427 10.0199 11.4492 10.0467 11.4645 10.0651C11.4721 10.0743 11.478 10.0815 11.4821 10.0864C11.4842 10.0888 11.4857 10.0907 11.4868 10.0921L11.4881 10.0936L11.4886 10.0942C11.4886 10.0942 11.4887 10.0943 12.0002 9.66667ZM6.36062 3.33333H9.85637V2H6.36062V3.33333ZM10.6668 6.66667C10.6668 6.52642 10.7326 6.05231 10.8408 5.40837C10.9435 4.79651 11.071 4.10535 11.1691 3.58603L9.85897 3.33853C9.76024 3.86101 9.63084 4.56245 9.52584 5.18754C9.42624 5.78054 9.3335 6.38772 9.3335 6.66667H10.6668ZM4.00017 10.3333H8.00017V9H4.00017V10.3333ZM8.00017 10.3333H12.0002V9H8.00017V10.3333ZM7.3335 9.66667V13.6667H8.66684V9.66667H7.3335ZM9.85637 3.33333C9.85797 3.33333 9.85777 3.33337 9.85777 3.33337L9.85637 3.33333C9.85637 3.33333 9.85664 3.33287 9.85784 3.3343C9.85904 3.33574 9.8593 3.33674 9.8593 3.33674C9.8593 3.33674 9.8593 3.33674 9.85897 3.33853L11.1691 3.58603C11.3242 2.76539 10.6964 2 9.85637 2V3.33333ZM6.29252 3.48051C6.28584 3.45399 6.29026 3.40921 6.31997 3.36776C6.33318 3.34933 6.34592 3.33985 6.35284 3.33601C6.35816 3.33305 6.36062 3.33333 6.36062 3.33333V2C5.3864 2 4.79008 2.97419 4.99954 3.80607L6.29252 3.48051Z" fill="black" fill-opacity="0.5"/>
</svg>
