<svg width="500" height="500" viewBox="0 0 500 500" fill="none" xmlns="http://www.w3.org/2000/svg">
<path opacity="0.1" d="M236.914 194.479L1.771 344.779L254.673 491.001L500 345.589L236.914 194.479Z" fill="black"/>
<path d="M223.162 27.7121C224.111 27.5178 225.143 27.6899 226.153 28.2726L454.87 160.32L453.177 160.664L224.46 28.6111C223.45 28.0284 222.418 27.8619 221.469 28.0506L223.162 27.7121Z" fill="#B2B2B2"/>
<path d="M406.439 374.264L456.652 170.016L458.344 169.672L408.131 373.92C407.571 376.19 406.161 377.649 404.485 377.988L402.792 378.332C404.468 377.994 405.878 376.534 406.439 374.264Z" fill="#B2B2B2"/>
<path d="M453.178 160.659L454.87 160.315C457.667 161.93 459.221 166.109 458.344 169.666L456.652 170.01C457.523 166.458 455.969 162.274 453.178 160.659Z" fill="#E0DAE2"/>
<path d="M167.61 236.372L217.823 32.124C218.695 28.5667 221.664 26.9961 224.461 28.6111L453.178 160.659C455.975 162.274 457.529 166.453 456.652 170.01L406.439 374.264C405.562 377.821 402.598 379.392 399.801 377.777L171.084 245.724C168.287 244.109 166.734 239.93 167.61 236.372Z" fill="#030000"/>
<path d="M177.461 220.739L223.218 34.6324L451.579 166.48L405.773 352.554L177.461 220.739Z" fill="#B8BFC4"/>
<path d="M402.094 375.052L402.11 381.396C402.116 382.456 401.417 383.521 400.013 384.331L239.406 477.06C236.609 478.675 232.075 478.675 229.3 477.06L2.08764 345.012C0.71133 344.213 0.0231744 343.164 0.0176248 342.115L0.000976562 335.772L402.094 375.052Z" fill="url(#paint0_linear)"/>
<path d="M2.10964 332.825L162.716 240.102C165.513 238.487 170.019 238.487 172.8 240.102L400.012 372.144C402.793 373.759 402.787 376.379 399.99 377.988L239.389 470.717C236.592 472.332 232.064 472.332 229.284 470.717L2.06524 338.669C-0.709571 337.054 -0.681822 334.435 2.10964 332.825Z" fill="url(#paint1_linear)"/>
<path d="M187.051 269.559L178.105 274.72C177.073 275.32 175.397 275.32 174.364 274.72L163.731 268.583C163.132 268.238 162.921 267.772 163.015 267.323C162.988 267.201 162.988 267.084 163.015 266.962C162.988 266.84 162.988 266.723 163.015 266.601C162.921 266.152 163.132 265.686 163.731 265.342L172.677 260.18C173.71 259.581 175.386 259.581 176.418 260.18L187.051 266.318C187.65 266.662 187.861 267.129 187.767 267.578C187.795 267.7 187.795 267.817 187.767 267.939C187.795 268.061 187.795 268.177 187.767 268.3C187.861 268.743 187.65 269.21 187.051 269.559ZM170.596 258.382C170.624 258.26 170.624 258.144 170.596 258.022C170.624 257.9 170.624 257.783 170.596 257.661C170.691 257.211 170.48 256.745 169.88 256.401L159.247 250.263C158.215 249.669 156.539 249.669 155.507 250.263L146.561 255.424C145.961 255.768 145.751 256.235 145.845 256.684C145.817 256.806 145.817 256.923 145.845 257.045C145.817 257.167 145.817 257.284 145.845 257.406C145.751 257.855 145.961 258.321 146.561 258.665L157.194 264.803C158.226 265.397 159.902 265.397 160.934 264.803L169.88 259.642C170.48 259.298 170.691 258.832 170.596 258.382ZM204.937 278.211C204.965 278.089 204.965 277.972 204.937 277.85C204.965 277.728 204.965 277.612 204.937 277.49C205.032 277.04 204.821 276.574 204.221 276.23L193.588 270.092C192.556 269.493 190.88 269.493 189.848 270.092L180.902 275.253C180.303 275.597 180.092 276.063 180.186 276.513C180.158 276.635 180.158 276.752 180.186 276.874C180.158 276.996 180.158 277.112 180.186 277.234C180.092 277.684 180.303 278.15 180.902 278.494L191.535 284.632C192.567 285.231 194.243 285.231 195.275 284.632L204.221 279.471C204.821 279.127 205.032 278.661 204.937 278.211ZM334.122 388.715C334.149 388.593 334.149 388.477 334.122 388.355C334.149 388.232 334.149 388.116 334.122 387.994C334.216 387.544 334.005 387.078 333.406 386.734L322.773 380.596C321.74 380.002 320.064 380.002 319.032 380.596L310.086 385.757C309.487 386.101 309.276 386.568 309.37 387.017C309.343 387.139 309.343 387.256 309.37 387.378C309.343 387.5 309.343 387.616 309.37 387.739C309.276 388.188 309.487 388.654 310.086 388.998L320.719 395.136C321.751 395.736 323.427 395.736 324.46 395.136L333.406 389.975C334.005 389.637 334.216 389.17 334.122 388.715ZM296.639 331.055C296.667 330.933 296.667 330.816 296.639 330.694C296.667 330.572 296.667 330.455 296.639 330.333C296.734 329.884 296.523 329.418 295.923 329.073L285.29 322.936C284.258 322.336 282.582 322.336 281.55 322.936L272.604 328.097C272.005 328.441 271.794 328.907 271.888 329.356C271.86 329.479 271.86 329.595 271.888 329.717C271.86 329.839 271.86 329.956 271.888 330.078C271.794 330.527 272.005 330.994 272.604 331.338L283.237 337.476C284.269 338.075 285.945 338.075 286.977 337.476L295.923 332.314C296.528 331.97 296.734 331.504 296.639 331.055ZM262.304 311.226C262.332 311.104 262.332 310.987 262.304 310.865C262.332 310.743 262.332 310.627 262.304 310.504C262.398 310.055 262.187 309.589 261.588 309.245L250.955 303.107C249.923 302.513 248.247 302.513 247.214 303.107L238.268 308.268C237.669 308.612 237.458 309.078 237.553 309.528C237.525 309.65 237.525 309.766 237.553 309.888C237.525 310.011 237.525 310.127 237.553 310.249C237.458 310.699 237.669 311.165 238.268 311.509L248.902 317.647C249.934 318.246 251.61 318.246 252.642 317.647L261.588 312.486C262.187 312.142 262.398 311.675 262.304 311.226ZM227.963 291.403C227.991 291.281 227.991 291.164 227.963 291.042C227.991 290.92 227.991 290.803 227.963 290.681C228.057 290.232 227.846 289.765 227.247 289.421L211.075 280.087C210.043 279.488 208.367 279.488 207.335 280.087L198.389 285.248C197.789 285.592 197.579 286.058 197.673 286.508C197.645 286.63 197.645 286.746 197.673 286.869C197.645 286.991 197.645 287.107 197.673 287.229C197.579 287.679 197.789 288.145 198.389 288.489L214.56 297.824C215.593 298.417 217.269 298.417 218.301 297.824L227.247 292.662C227.846 292.318 228.057 291.852 227.963 291.403ZM245.133 301.314C245.161 301.192 245.161 301.076 245.133 300.954C245.161 300.831 245.161 300.715 245.133 300.593C245.228 300.143 245.017 299.677 244.417 299.333L233.784 293.195C232.752 292.601 231.076 292.601 230.044 293.195L221.098 298.356C220.499 298.7 220.288 299.167 220.382 299.616C220.354 299.738 220.354 299.855 220.382 299.977C220.354 300.099 220.354 300.215 220.382 300.338C220.288 300.787 220.499 301.253 221.098 301.597L231.731 307.735C232.763 308.329 234.439 308.329 235.471 307.735L244.417 302.574C245.017 302.23 245.228 301.764 245.133 301.314ZM279.474 321.137C279.502 321.015 279.502 320.899 279.474 320.777C279.502 320.655 279.502 320.538 279.474 320.416C279.569 319.967 279.358 319.5 278.758 319.156L268.125 313.018C267.093 312.419 265.417 312.419 264.385 313.018L255.439 318.18C254.84 318.524 254.629 318.99 254.723 319.439C254.695 319.561 254.695 319.678 254.723 319.8C254.695 319.922 254.695 320.039 254.723 320.161C254.629 320.61 254.84 321.076 255.439 321.421L266.072 327.558C267.104 328.158 268.78 328.158 269.812 327.558L278.758 322.397C279.358 322.053 279.569 321.587 279.474 321.137ZM206.436 297.169C206.464 297.047 206.464 296.93 206.436 296.808C206.464 296.686 206.464 296.569 206.436 296.447C206.53 295.998 206.319 295.532 205.72 295.187L195.087 289.05C194.055 288.456 192.379 288.456 191.346 289.05L182.4 294.211C181.801 294.555 181.59 295.021 181.684 295.47C181.657 295.593 181.657 295.709 181.684 295.831C181.657 295.953 181.657 296.07 181.684 296.192C181.59 296.641 181.801 297.108 182.4 297.452L193.033 303.59C194.066 304.183 195.742 304.183 196.774 303.59L205.72 298.428C206.319 298.084 206.53 297.618 206.436 297.169ZM343.795 376.473C343.822 376.351 343.822 376.234 343.795 376.112C343.822 375.99 343.822 375.873 343.795 375.751C343.889 375.302 343.678 374.836 343.079 374.492L332.446 368.354C331.413 367.76 329.737 367.76 328.705 368.354L319.759 373.515C319.16 373.859 318.949 374.325 319.043 374.775C319.015 374.897 319.015 375.013 319.043 375.135C319.015 375.257 319.015 375.374 319.043 375.496C318.949 375.946 319.16 376.412 319.759 376.756L330.392 382.894C331.424 383.488 333.1 383.488 334.133 382.894L343.079 377.733C343.678 377.389 343.889 376.922 343.795 376.473ZM223.606 307.086C223.634 306.964 223.634 306.847 223.606 306.725C223.634 306.603 223.634 306.486 223.606 306.364C223.701 305.915 223.49 305.449 222.89 305.105L212.257 298.967C211.225 298.373 209.549 298.373 208.517 298.967L199.571 304.128C198.972 304.472 198.761 304.938 198.855 305.388C198.827 305.51 198.827 305.626 198.855 305.748C198.827 305.87 198.827 305.987 198.855 306.109C198.761 306.559 198.972 307.025 199.571 307.369L210.204 313.507C211.236 314.106 212.912 314.106 213.944 313.507L222.89 308.346C223.49 308.002 223.701 307.535 223.606 307.086ZM240.777 316.997C240.805 316.875 240.805 316.759 240.777 316.637C240.805 316.515 240.805 316.398 240.777 316.276C240.871 315.826 240.66 315.36 240.061 315.016L229.428 308.878C228.396 308.285 226.72 308.285 225.687 308.878L216.741 314.04C216.142 314.384 215.931 314.85 216.026 315.299C215.998 315.421 215.998 315.538 216.026 315.66C215.998 315.782 215.998 315.899 216.026 316.021C215.931 316.47 216.142 316.936 216.741 317.28L227.375 323.418C228.407 324.018 230.083 324.018 231.115 323.418L240.061 318.257C240.66 317.913 240.871 317.447 240.777 316.997ZM257.947 326.909C257.975 326.787 257.975 326.67 257.947 326.548C257.975 326.426 257.975 326.31 257.947 326.188C258.042 325.738 257.831 325.272 257.231 324.928L246.598 318.79C245.566 318.191 243.89 318.191 242.858 318.79L233.912 323.951C233.313 324.295 233.102 324.761 233.196 325.211C233.168 325.333 233.168 325.45 233.196 325.572C233.168 325.694 233.168 325.81 233.196 325.932C233.102 326.382 233.313 326.848 233.912 327.192L244.545 333.33C245.577 333.929 247.253 333.929 248.286 333.33L257.231 328.169C257.831 327.825 258.042 327.359 257.947 326.909ZM326.624 366.561C326.652 366.439 326.652 366.323 326.624 366.2C326.652 366.078 326.652 365.962 326.624 365.84C326.718 365.39 326.507 364.924 325.908 364.58L315.275 358.442C314.243 357.848 312.567 357.848 311.535 358.442L302.589 363.603C301.989 363.947 301.778 364.414 301.873 364.863C301.845 364.985 301.845 365.102 301.873 365.224C301.845 365.346 301.845 365.462 301.873 365.584C301.778 366.034 301.989 366.5 302.589 366.844L313.222 372.982C314.254 373.576 315.93 373.576 316.962 372.982L325.908 367.821C326.507 367.477 326.718 367.011 326.624 366.561ZM309.453 356.65C309.481 356.527 309.481 356.411 309.453 356.289C309.481 356.167 309.481 356.05 309.453 355.928C309.548 355.479 309.337 355.012 308.738 354.668C294.131 346.233 298.576 346.094 285.418 353.692C284.819 354.036 284.608 354.502 284.702 354.951C284.674 355.073 284.674 355.19 284.702 355.312C284.674 355.434 284.674 355.551 284.702 355.673C284.608 356.122 284.819 356.589 285.418 356.933L296.051 363.07C297.083 363.664 298.759 363.664 299.792 363.07L308.738 357.909C309.337 357.565 309.548 357.099 309.453 356.65ZM292.283 346.738C292.311 346.616 292.311 346.499 292.283 346.377C292.311 346.255 292.311 346.139 292.283 346.016C292.377 345.567 292.166 345.101 291.567 344.757L280.934 338.619C279.902 338.019 278.226 338.019 277.193 338.619L268.247 343.78C267.648 344.124 267.437 344.59 267.532 345.04C267.504 345.162 267.504 345.278 267.532 345.4C267.504 345.523 267.504 345.639 267.532 345.761C267.437 346.211 267.648 346.677 268.247 347.021L278.881 353.159C279.913 353.758 281.589 353.758 282.621 353.159L291.567 347.998C292.172 347.654 292.377 347.187 292.283 346.738ZM275.118 336.821C275.146 336.699 275.146 336.582 275.118 336.46C275.146 336.338 275.146 336.221 275.118 336.099C275.212 335.65 275.001 335.184 274.402 334.84L263.769 328.702C262.737 328.102 261.061 328.102 260.028 328.702L251.083 333.863C250.483 334.207 250.272 334.673 250.367 335.123C250.339 335.245 250.339 335.361 250.367 335.483C250.339 335.605 250.339 335.722 250.367 335.844C250.272 336.294 250.483 336.76 251.083 337.104L261.716 343.242C264.102 344.618 265.623 343.147 274.402 338.081C275.001 337.736 275.212 337.27 275.118 336.821ZM305.73 404.687L321.901 414.022C322.934 414.615 324.61 414.615 325.642 414.022L334.588 408.86C335.187 408.516 335.398 408.05 335.304 407.601C335.331 407.479 335.331 407.362 335.304 407.24C335.331 407.118 335.331 407.001 335.304 406.879C335.398 406.43 335.187 405.964 334.588 405.619L318.416 396.285C317.384 395.686 315.708 395.686 314.676 396.285L305.73 401.446C305.13 401.79 304.919 402.256 305.014 402.706C304.986 402.828 304.986 402.945 305.014 403.067C304.986 403.189 304.986 403.305 305.014 403.427C304.919 403.877 305.13 404.343 305.73 404.687ZM327.257 398.916L337.89 405.053C338.922 405.653 340.598 405.653 341.63 405.053L350.576 399.892C351.176 399.548 351.386 399.082 351.292 398.632C351.32 398.51 351.32 398.394 351.292 398.272C351.32 398.15 351.32 398.033 351.292 397.911C351.386 397.462 351.176 396.995 350.576 396.651L339.943 390.513C338.911 389.914 337.235 389.914 336.203 390.513L327.257 395.675C326.657 396.019 326.446 396.485 326.541 396.934C326.513 397.056 326.513 397.173 326.541 397.295C326.513 397.417 326.513 397.534 326.541 397.656C326.446 398.105 326.657 398.571 327.257 398.916ZM313.81 340.966C313.838 340.844 313.838 340.728 313.81 340.606C313.838 340.484 313.838 340.367 313.81 340.245C313.904 339.795 313.693 339.329 313.094 338.985L302.461 332.847C301.429 332.248 299.753 332.248 298.721 332.847L289.775 338.008C289.175 338.352 288.964 338.819 289.059 339.268C289.031 339.39 289.031 339.507 289.059 339.629C289.031 339.751 289.031 339.868 289.059 339.99C288.964 340.439 289.175 340.905 289.775 341.249C304.664 349.846 300.208 349.668 313.094 342.226C313.693 341.882 313.904 341.416 313.81 340.966ZM133.902 305.632L144.535 311.77C145.567 312.364 147.243 312.364 148.276 311.77L157.222 306.609C157.821 306.264 158.032 305.798 157.938 305.349C157.965 305.227 157.965 305.11 157.938 304.988C157.965 304.866 157.965 304.749 157.938 304.627C158.032 304.178 157.821 303.712 157.222 303.368L146.589 297.23C145.556 296.636 143.88 296.636 142.848 297.23L133.902 302.391C133.303 302.735 133.092 303.201 133.186 303.651C133.158 303.773 133.158 303.889 133.186 304.011C133.158 304.133 133.158 304.25 133.186 304.372C133.097 304.816 133.308 305.282 133.902 305.632ZM336.93 386.673L353.101 396.008C354.134 396.607 355.81 396.607 356.842 396.008L365.788 390.846C366.387 390.502 366.598 390.036 366.504 389.587C366.531 389.465 366.531 389.348 366.504 389.226C366.531 389.104 366.531 388.987 366.504 388.865C366.598 388.416 366.387 387.949 365.788 387.605L349.616 378.271C348.584 377.677 346.908 377.677 345.876 378.271L336.93 383.432C336.33 383.776 336.119 384.242 336.214 384.692C336.186 384.814 336.186 384.93 336.214 385.053C336.186 385.175 336.186 385.291 336.214 385.413C336.119 385.863 336.33 386.329 336.93 386.673ZM330.98 350.878C331.008 350.756 331.008 350.639 330.98 350.517C331.008 350.395 331.008 350.279 330.98 350.157C331.075 349.707 330.864 349.241 330.265 348.897L319.632 342.759C318.599 342.159 316.923 342.159 315.891 342.759L306.945 347.92C306.346 348.264 306.135 348.73 306.229 349.18C306.201 349.302 306.201 349.418 306.229 349.54C306.201 349.663 306.201 349.779 306.229 349.901C306.135 350.351 306.346 350.817 306.945 351.161L317.578 357.299C318.61 357.898 320.286 357.898 321.319 357.299L330.265 352.138C330.864 351.794 331.075 351.327 330.98 350.878ZM348.151 360.79C348.179 360.667 348.179 360.551 348.151 360.429C348.179 360.307 348.179 360.19 348.151 360.068C348.245 359.619 348.034 359.152 347.435 358.808L336.802 352.67C335.77 352.071 334.094 352.071 333.062 352.67L324.116 357.832C323.516 358.176 323.305 358.642 323.4 359.091C323.372 359.213 323.372 359.33 323.4 359.452C323.372 359.574 323.372 359.691 323.4 359.813C323.305 360.262 323.516 360.729 324.116 361.073L334.749 367.211C335.781 367.81 337.457 367.81 338.489 367.211L347.435 362.049C348.034 361.705 348.245 361.239 348.151 360.79ZM358.457 380.901L369.09 387.039C370.122 387.633 371.798 387.633 372.83 387.039L381.776 381.878C382.376 381.534 382.586 381.068 382.492 380.618C382.52 380.496 382.52 380.38 382.492 380.258C382.52 380.136 382.52 380.019 382.492 379.897C382.586 379.447 382.376 378.981 381.776 378.637L371.143 372.499C370.111 371.905 368.435 371.905 367.403 372.499L358.457 377.66C357.857 378.005 357.646 378.471 357.741 378.92C357.713 379.042 357.713 379.159 357.741 379.281C357.713 379.403 357.713 379.52 357.741 379.642C357.646 380.091 357.857 380.557 358.457 380.901ZM365.322 370.707C365.349 370.585 365.349 370.468 365.322 370.346C365.349 370.224 365.349 370.107 365.322 369.985C365.416 369.536 365.205 369.07 364.606 368.726L353.973 362.588C352.94 361.994 351.264 361.994 350.232 362.588L341.286 367.749C340.687 368.093 340.476 368.559 340.57 369.009C340.542 369.131 340.542 369.247 340.57 369.369C340.542 369.491 340.542 369.608 340.57 369.73C340.476 370.18 340.687 370.646 341.286 370.99L351.919 377.128C352.951 377.722 354.627 377.722 355.66 377.128L364.606 371.967C365.205 371.622 365.416 371.156 365.322 370.707ZM83.1563 293.24C83.1286 293.362 83.1286 293.478 83.1563 293.6C83.062 294.05 83.2729 294.516 83.8722 294.86L94.5053 300.998C95.5376 301.597 97.2135 301.597 98.2458 300.998L107.192 295.837C107.791 295.493 108.002 295.027 107.908 294.577C107.935 294.455 107.935 294.338 107.908 294.216C107.935 294.094 107.935 293.978 107.908 293.856C108.002 293.406 107.791 292.94 107.192 292.596L96.5587 286.458C95.5265 285.859 93.8505 285.859 92.8182 286.458L83.8722 291.619C83.2729 291.963 83.062 292.429 83.1563 292.879C83.1286 293.001 83.1286 293.117 83.1563 293.24ZM150.49 313.479C150.462 313.601 150.462 313.718 150.49 313.84C150.462 313.962 150.462 314.078 150.49 314.2C150.396 314.65 150.607 315.116 151.206 315.46L161.839 321.598C162.871 322.197 164.547 322.197 165.579 321.598L174.525 316.437C175.125 316.093 175.336 315.627 175.241 315.177C175.269 315.055 175.269 314.939 175.241 314.816C175.269 314.694 175.269 314.578 175.241 314.456C175.336 314.006 175.125 313.54 174.525 313.196L163.892 307.058C162.86 306.459 161.184 306.459 160.152 307.058L151.206 312.219C150.607 312.563 150.396 313.029 150.49 313.479ZM116.021 293.728C115.993 293.85 115.993 293.967 116.021 294.089C115.993 294.211 115.993 294.327 116.021 294.449C115.927 294.899 116.138 295.365 116.737 295.709L127.37 301.847C128.402 302.441 130.078 302.441 131.111 301.847L140.057 296.686C140.656 296.342 140.867 295.876 140.773 295.426C140.8 295.304 140.8 295.187 140.773 295.065C140.8 294.943 140.8 294.827 140.773 294.705C140.867 294.255 140.656 293.789 140.057 293.445L129.424 287.307C128.391 286.713 126.715 286.713 125.683 287.307L116.737 292.468C116.138 292.812 115.927 293.278 116.021 293.728ZM184.831 333.308C184.803 333.43 184.803 333.546 184.831 333.669C184.803 333.791 184.803 333.907 184.831 334.029C184.737 334.479 184.948 334.945 185.547 335.289L196.18 341.427C197.212 342.021 198.888 342.021 199.92 341.427L208.866 336.266C209.466 335.922 209.677 335.456 209.582 335.006C209.61 334.884 209.61 334.767 209.582 334.645C209.61 334.523 209.61 334.407 209.582 334.285C209.677 333.835 209.466 333.369 208.866 333.025L198.228 326.881C197.196 326.282 195.52 326.282 194.487 326.881L185.541 332.043C184.942 332.392 184.737 332.858 184.831 333.308ZM122.886 283.528L112.253 277.39C111.221 276.79 109.545 276.79 108.513 277.39L99.5666 282.551C98.9672 282.895 98.7563 283.361 98.8507 283.811C98.8229 283.933 98.8229 284.049 98.8507 284.171C98.8229 284.294 98.8229 284.41 98.8507 284.532C98.7563 284.982 98.9672 285.448 99.5666 285.792L110.2 291.93C111.232 292.529 112.908 292.529 113.94 291.93L122.886 286.769C123.485 286.425 123.696 285.958 123.602 285.509C123.63 285.387 123.63 285.27 123.602 285.148C123.63 285.026 123.63 284.91 123.602 284.787C123.691 284.343 123.485 283.877 122.886 283.528ZM253.508 372.96C253.48 373.082 253.48 373.199 253.508 373.321C253.48 373.443 253.48 373.559 253.508 373.681C253.413 374.131 253.624 374.597 254.224 374.941L264.857 381.079C265.889 381.673 267.565 381.673 268.597 381.079L277.543 375.918C278.142 375.574 278.353 375.108 278.259 374.658C278.287 374.536 278.287 374.419 278.259 374.297C278.287 374.175 278.287 374.059 278.259 373.937C278.353 373.487 278.142 373.021 277.543 372.677L266.91 366.539C265.878 365.945 264.202 365.945 263.17 366.539L254.224 371.7C253.624 372.044 253.413 372.51 253.508 372.96ZM219.167 353.131C219.139 353.253 219.139 353.37 219.167 353.492C219.139 353.614 219.139 353.73 219.167 353.853C219.072 354.302 219.283 354.768 219.882 355.112L230.516 361.25C231.548 361.85 233.224 361.85 234.256 361.25L243.202 356.089C243.801 355.745 244.012 355.279 243.918 354.829C243.946 354.707 243.946 354.591 243.918 354.469C243.946 354.346 243.946 354.23 243.918 354.108C244.012 353.658 243.801 353.192 243.202 352.848L232.569 346.71C231.537 346.111 229.861 346.111 228.829 346.71L219.882 351.871C219.283 352.215 219.072 352.682 219.167 353.131ZM236.337 363.048C236.309 363.17 236.309 363.287 236.337 363.409C236.309 363.531 236.309 363.648 236.337 363.77C236.243 364.219 236.454 364.685 237.053 365.03L247.686 371.167C248.718 371.761 250.394 371.761 251.427 371.167L260.373 366.006C260.972 365.662 261.183 365.196 261.088 364.746C261.116 364.624 261.116 364.508 261.088 364.386C261.116 364.264 261.116 364.147 261.088 364.025C261.183 363.576 260.972 363.109 260.373 362.765L249.74 356.627C248.707 356.034 247.031 356.034 245.999 356.627L237.053 361.789C236.454 362.133 236.243 362.599 236.337 363.048ZM270.678 382.872C270.65 382.994 270.65 383.11 270.678 383.232C270.65 383.354 270.65 383.471 270.678 383.593C270.584 384.043 270.795 384.509 271.394 384.853L282.027 391.002C283.059 391.596 284.735 391.596 285.768 391.002L294.714 385.841C295.313 385.497 295.524 385.03 295.43 384.581C295.457 384.459 295.457 384.342 295.43 384.22C295.457 384.098 295.457 383.981 295.43 383.859C295.524 383.41 295.313 382.944 294.714 382.6L284.081 376.462C283.048 375.868 281.372 375.868 280.34 376.462L271.394 381.623C270.795 381.956 270.584 382.422 270.678 382.872ZM287.849 392.783C287.821 392.905 287.821 393.022 287.849 393.144C287.821 393.266 287.821 393.383 287.849 393.505C287.754 393.954 287.965 394.42 288.565 394.764L299.198 400.902C300.23 401.502 301.906 401.502 302.938 400.902L311.884 395.741C312.484 395.397 312.694 394.931 312.6 394.481C312.628 394.359 312.628 394.243 312.6 394.121C312.628 393.999 312.628 393.882 312.6 393.76C312.694 393.31 312.484 392.844 311.884 392.5L301.251 386.362C300.219 385.763 298.543 385.763 297.511 386.362L288.565 391.523C287.96 391.868 287.754 392.334 287.849 392.783ZM201.996 343.219C201.968 343.342 201.968 343.458 201.996 343.58C201.968 343.702 201.968 343.819 201.996 343.941C201.902 344.39 202.113 344.857 202.712 345.201L213.345 351.339C214.377 351.938 216.053 351.938 217.085 351.339L226.031 346.177C226.631 345.833 226.842 345.367 226.747 344.918C226.775 344.796 226.775 344.679 226.747 344.557C226.775 344.435 226.775 344.318 226.747 344.196C226.842 343.747 226.631 343.281 226.031 342.936L215.398 336.799C214.366 336.199 212.69 336.199 211.658 336.799L202.712 341.96C202.113 342.304 201.902 342.77 201.996 343.219ZM167.661 323.396C167.633 323.518 167.633 323.635 167.661 323.757C167.633 323.879 167.633 323.996 167.661 324.118C167.566 324.567 167.777 325.033 168.376 325.377L179.009 331.515C180.042 332.115 181.718 332.115 182.75 331.515L191.696 326.354C192.295 326.01 192.506 325.544 192.412 325.094C192.44 324.972 192.44 324.856 192.412 324.734C192.44 324.612 192.44 324.495 192.412 324.373C192.506 323.923 192.295 323.457 191.696 323.113L181.063 316.975C180.031 316.376 178.355 316.376 177.322 316.975L168.376 322.136C167.777 322.48 167.566 322.947 167.661 323.396ZM261.066 395.081C261.039 395.203 261.039 395.319 261.066 395.441C261.039 395.564 261.039 395.68 261.066 395.802C260.972 396.252 261.183 396.718 261.782 397.062L272.415 403.2C273.447 403.794 275.123 403.794 276.156 403.2L285.102 398.039C285.701 397.695 285.912 397.228 285.818 396.779C285.845 396.657 285.845 396.54 285.818 396.418C285.845 396.296 285.845 396.18 285.818 396.057C285.912 395.608 285.701 395.142 285.102 394.798L274.469 388.66C273.436 388.066 271.76 388.066 270.728 388.66L261.782 393.821C261.183 394.159 260.972 394.631 261.066 395.081ZM243.896 385.164C243.868 385.286 243.868 385.402 243.896 385.524C243.868 385.646 243.868 385.763 243.896 385.885C243.801 386.335 244.012 386.801 244.612 387.145L255.245 393.283C256.277 393.876 257.953 393.876 258.985 393.283L267.931 388.121C268.531 387.777 268.741 387.311 268.647 386.862C268.675 386.74 268.675 386.623 268.647 386.501C268.675 386.379 268.675 386.262 268.647 386.14C268.741 385.691 268.531 385.225 267.931 384.881L257.298 378.743C256.266 378.149 254.59 378.149 253.558 378.743L244.612 383.904C244.012 384.248 243.801 384.714 243.896 385.164ZM278.237 404.992C278.209 405.114 278.209 405.231 278.237 405.353C278.209 405.475 278.209 405.592 278.237 405.714C278.142 406.163 278.353 406.63 278.953 406.974L289.586 413.111C290.618 413.711 292.294 413.711 293.326 413.111L302.272 407.95C302.872 407.606 303.083 407.14 302.988 406.691C303.016 406.568 303.016 406.452 302.988 406.33C303.016 406.208 303.016 406.091 302.988 405.969C303.083 405.52 302.872 405.053 302.272 404.709L291.639 398.571C290.607 397.972 288.931 397.972 287.899 398.571L278.953 403.733C278.353 404.077 278.142 404.543 278.237 404.992ZM295.407 414.904C295.38 415.026 295.38 415.143 295.407 415.265C295.38 415.387 295.38 415.503 295.407 415.625C295.313 416.075 295.524 416.541 296.123 416.885L306.756 423.023C307.789 423.622 309.465 423.622 310.497 423.023L319.443 417.862C320.042 417.518 320.253 417.052 320.159 416.602C320.186 416.48 320.186 416.364 320.159 416.241C320.186 416.119 320.186 416.003 320.159 415.881C320.253 415.431 320.042 414.965 319.443 414.621L308.81 408.483C307.778 407.884 306.102 407.884 305.069 408.483L296.123 413.644C295.524 413.988 295.313 414.454 295.407 414.904ZM166.478 304.516C166.451 304.638 166.451 304.755 166.478 304.877C166.451 304.999 166.451 305.116 166.478 305.238C166.384 305.687 166.595 306.153 167.194 306.498L183.366 315.832C184.398 316.431 186.074 316.431 187.106 315.832L196.052 310.671C196.652 310.327 196.863 309.861 196.768 309.411C196.796 309.289 196.796 309.173 196.768 309.05C196.796 308.928 196.796 308.812 196.768 308.69C196.863 308.24 196.652 307.774 196.052 307.43L179.881 298.095C178.849 297.496 177.173 297.496 176.14 298.095L167.194 303.257C166.595 303.601 166.384 304.067 166.478 304.516ZM135.445 322.553C135.417 322.675 135.417 322.791 135.445 322.913C135.417 323.035 135.417 323.152 135.445 323.274C135.351 323.724 135.561 324.19 136.161 324.534L152.332 333.868C153.365 334.462 155.041 334.462 156.073 333.868L165.019 328.707C165.618 328.363 165.829 327.897 165.735 327.447C165.763 327.325 165.763 327.209 165.735 327.087C165.763 326.965 165.763 326.848 165.735 326.726C165.829 326.276 165.618 325.81 165.019 325.466L148.847 316.132C147.815 315.538 146.139 315.538 145.107 316.132L136.161 321.293C135.561 321.637 135.351 322.103 135.445 322.553ZM100.327 302.79C100.299 302.913 100.299 303.029 100.327 303.151C100.299 303.273 100.299 303.39 100.327 303.512C100.233 303.961 100.443 304.428 101.043 304.772L111.676 310.91C112.708 311.509 114.384 311.509 115.416 310.91L124.362 305.748C124.962 305.404 125.173 304.938 125.078 304.489C125.106 304.367 125.106 304.25 125.078 304.128C125.106 304.006 125.106 303.889 125.078 303.767C125.173 303.318 124.962 302.851 124.362 302.507L113.729 296.37C112.697 295.77 111.021 295.77 109.989 296.37L101.043 301.531C100.438 301.875 100.233 302.341 100.327 302.79ZM117.492 312.702C117.464 312.824 117.464 312.941 117.492 313.063C117.464 313.185 117.464 313.301 117.492 313.424C117.398 313.873 117.608 314.339 118.208 314.683L128.841 320.821C129.873 321.415 131.549 321.415 132.581 320.821L141.527 315.66C142.127 315.316 142.338 314.85 142.243 314.4C142.271 314.278 142.271 314.162 142.243 314.04C142.271 313.917 142.271 313.801 142.243 313.679C142.338 313.229 142.127 312.763 141.527 312.419L130.894 306.281C129.862 305.687 128.186 305.687 127.154 306.281L118.208 311.442C117.608 311.786 117.398 312.253 117.492 312.702ZM157.766 335.616C157.738 335.739 157.738 335.855 157.766 335.977C157.738 336.099 157.738 336.216 157.766 336.338C157.671 336.787 157.882 337.254 158.481 337.598L238.002 383.51C239.034 384.104 240.71 384.104 241.742 383.51L250.689 378.349C251.288 378.005 251.499 377.538 251.404 377.089C251.432 376.967 251.432 376.85 251.404 376.728C251.432 376.606 251.432 376.489 251.404 376.367C251.499 375.918 251.288 375.452 250.689 375.108L171.168 329.196C170.136 328.596 168.46 328.596 167.427 329.196L158.481 334.357C157.882 334.701 157.671 335.167 157.766 335.616ZM223.523 337.448C223.495 337.57 223.495 337.687 223.523 337.809C223.495 337.931 223.495 338.047 223.523 338.169C223.429 338.619 223.64 339.085 224.239 339.429L234.872 345.567C235.904 346.166 237.58 346.166 238.613 345.567L247.559 340.406C248.158 340.062 248.369 339.596 248.274 339.146C248.302 339.024 248.302 338.907 248.274 338.785C248.302 338.663 248.302 338.547 248.274 338.425C248.369 337.975 248.158 337.509 247.559 337.165L236.925 331.027C235.893 330.428 234.217 330.428 233.185 331.027L224.239 336.188C223.64 336.532 223.429 336.998 223.523 337.448ZM240.694 347.365C240.666 347.487 240.666 347.604 240.694 347.726C240.666 347.848 240.666 347.964 240.694 348.086C240.599 348.536 240.81 349.002 241.41 349.346L252.043 355.484C253.075 356.078 254.751 356.078 255.783 355.484L264.729 350.323C265.328 349.979 265.539 349.513 265.445 349.063C265.473 348.941 265.473 348.825 265.445 348.703C265.473 348.58 265.473 348.464 265.445 348.342C265.539 347.892 265.328 347.426 264.729 347.082L254.096 340.944C253.064 340.345 251.388 340.345 250.356 340.944L241.41 346.105C240.81 346.449 240.599 346.916 240.694 347.365ZM206.353 327.536C206.325 327.658 206.325 327.775 206.353 327.897C206.325 328.019 206.325 328.136 206.353 328.258C206.258 328.707 206.469 329.173 207.068 329.517L217.701 335.655C218.734 336.255 220.41 336.255 221.442 335.655L230.388 330.494C230.987 330.15 231.198 329.684 231.104 329.234C231.132 329.112 231.132 328.996 231.104 328.874C231.132 328.752 231.132 328.635 231.104 328.513C231.198 328.063 230.987 327.597 230.388 327.253L219.755 321.115C218.723 320.516 217.047 320.516 216.014 321.115L207.068 326.276C206.469 326.621 206.258 327.087 206.353 327.536ZM154.225 265.436L143.592 259.298C142.56 258.704 140.884 258.704 139.851 259.298L130.905 264.459C130.306 264.803 130.095 265.269 130.189 265.719C130.162 265.841 130.162 265.958 130.189 266.08C130.162 266.202 130.162 266.318 130.189 266.44C130.095 266.89 130.306 267.356 130.905 267.7L141.538 273.838C142.571 274.432 144.247 274.432 145.279 273.838L154.225 268.677C154.824 268.333 155.035 267.867 154.941 267.417C154.969 267.295 154.969 267.178 154.941 267.056C154.969 266.934 154.969 266.818 154.941 266.696C155.035 266.246 154.824 265.78 154.225 265.436ZM189.188 317.625C189.16 317.747 189.16 317.863 189.188 317.985C189.16 318.107 189.16 318.224 189.188 318.346C189.093 318.796 189.304 319.262 189.903 319.606L200.536 325.744C201.569 326.343 203.245 326.343 204.277 325.744L213.223 320.583C213.822 320.238 214.033 319.772 213.939 319.323C213.967 319.201 213.967 319.084 213.939 318.962C213.967 318.84 213.967 318.723 213.939 318.601C214.033 318.152 213.822 317.686 213.223 317.342L202.59 311.204C201.558 310.604 199.882 310.604 198.849 311.204L189.903 316.365C189.299 316.709 189.093 317.175 189.188 317.625ZM257.864 357.277C257.836 357.399 257.836 357.515 257.864 357.637C257.836 357.759 257.836 357.876 257.864 357.998C257.77 358.448 257.981 358.914 258.58 359.258L269.213 365.396C270.245 365.99 271.921 365.99 272.954 365.396L281.9 360.235C282.499 359.891 282.71 359.424 282.615 358.975C282.643 358.853 282.643 358.736 282.615 358.614C282.643 358.492 282.643 358.375 282.615 358.253C282.71 357.804 282.499 357.338 281.9 356.994L271.266 350.856C270.234 350.262 268.558 350.262 267.526 350.856L258.58 356.017C257.981 356.361 257.77 356.827 257.864 357.277ZM292.205 377.1C292.178 377.222 292.178 377.339 292.205 377.461C292.178 377.583 292.178 377.699 292.205 377.821C292.111 378.271 292.322 378.737 292.921 379.081L303.554 385.219C304.586 385.813 306.262 385.813 307.295 385.219L316.241 380.058C316.84 379.714 317.051 379.248 316.957 378.798C316.984 378.676 316.984 378.559 316.957 378.437C316.984 378.315 316.984 378.199 316.957 378.077C317.051 377.627 316.84 377.161 316.241 376.817L305.608 370.679C304.575 370.085 302.899 370.085 301.867 370.679L292.921 375.84C292.316 376.184 292.111 376.65 292.205 377.1ZM275.035 367.188C275.007 367.31 275.007 367.427 275.035 367.549C275.007 367.671 275.007 367.788 275.035 367.91C274.94 368.359 275.151 368.825 275.751 369.17L286.384 375.307C287.416 375.901 289.092 375.901 290.124 375.307L299.07 370.146C299.67 369.802 299.88 369.336 299.786 368.887C299.814 368.764 299.814 368.648 299.786 368.526C299.814 368.404 299.814 368.287 299.786 368.165C299.88 367.716 299.67 367.249 299.07 366.905L288.437 360.767C287.405 360.174 285.729 360.174 284.697 360.767L275.751 365.929C275.151 366.273 274.94 366.739 275.035 367.188Z" fill="#B2B2B2"/>
<path d="M358.457 377.183L367.403 372.022C368.435 371.428 370.111 371.428 371.143 372.022L381.776 378.16C382.809 378.759 382.809 379.725 381.776 380.319L372.83 385.48C371.798 386.079 370.122 386.079 369.09 385.48L358.457 379.342C357.425 378.743 357.425 377.777 358.457 377.183ZM341.286 369.43L351.919 375.568C352.952 376.168 354.628 376.168 355.66 375.568L364.606 370.407C365.638 369.808 365.638 368.842 364.606 368.248L353.973 362.11C352.941 361.517 351.265 361.517 350.232 362.11L341.286 367.272C340.254 367.865 340.254 368.831 341.286 369.43ZM324.116 359.513L334.749 365.651C335.781 366.245 337.457 366.245 338.489 365.651L347.435 360.49C348.468 359.896 348.468 358.925 347.435 358.331L336.802 352.193C335.77 351.594 334.094 351.594 333.062 352.193L324.116 357.354C323.084 357.954 323.084 358.919 324.116 359.513ZM306.945 349.602L317.578 355.739C318.611 356.339 320.287 356.339 321.319 355.739L330.265 350.578C331.297 349.979 331.297 349.013 330.265 348.419L319.632 342.282C318.6 341.682 316.924 341.682 315.891 342.282L306.945 347.443C305.913 348.037 305.913 349.008 306.945 349.602ZM289.78 339.69L300.413 345.828C301.446 346.427 303.122 346.427 304.154 345.828L313.1 340.667C314.132 340.067 314.132 339.102 313.1 338.508L302.467 332.37C301.435 331.776 299.759 331.776 298.726 332.37L289.78 337.531C288.743 338.125 288.743 339.091 289.78 339.69ZM272.61 329.778L283.243 335.916C284.275 336.516 285.951 336.516 286.983 335.916L295.929 330.755C296.962 330.156 296.962 329.19 295.929 328.596L285.296 322.458C284.264 321.865 282.588 321.865 281.556 322.458L272.61 327.619C271.578 328.213 271.578 329.179 272.61 329.778ZM255.439 319.861L266.072 325.999C267.105 326.593 268.781 326.593 269.813 325.999L278.759 320.838C279.791 320.244 279.791 319.273 278.759 318.679L268.126 312.541C267.093 311.942 265.417 311.942 264.385 312.541L255.439 317.702C254.407 318.302 254.407 319.267 255.439 319.861ZM238.269 309.949L248.902 316.087C249.934 316.687 251.61 316.687 252.642 316.087L261.588 310.926C262.62 310.327 262.62 309.361 261.588 308.767L250.955 302.63C249.923 302.03 248.247 302.03 247.215 302.63L238.269 307.791C237.236 308.384 237.236 309.356 238.269 309.949ZM221.098 300.038L231.731 306.176C232.763 306.775 234.439 306.775 235.472 306.176L244.418 301.015C245.45 300.415 245.45 299.45 244.418 298.856L233.785 292.718C232.752 292.124 231.076 292.124 230.044 292.718L221.098 297.879C220.066 298.473 220.066 299.438 221.098 300.038ZM198.395 286.93L214.566 296.264C215.598 296.863 217.274 296.863 218.307 296.264L227.253 291.103C228.285 290.504 228.285 289.538 227.253 288.944L211.081 279.61C210.049 279.01 208.373 279.01 207.341 279.61L198.395 284.771C197.362 285.365 197.362 286.33 198.395 286.93ZM133.902 304.067L144.535 310.205C145.568 310.804 147.244 310.804 148.276 310.205L157.222 305.044C158.254 304.444 158.254 303.479 157.222 302.885L146.589 296.747C145.557 296.153 143.881 296.153 142.848 296.747L133.902 301.908C132.87 302.502 132.87 303.473 133.902 304.067ZM116.737 294.155L127.37 300.293C128.403 300.887 130.079 300.887 131.111 300.293L140.057 295.132C141.089 294.538 141.089 293.567 140.057 292.973L129.424 286.835C128.392 286.241 126.716 286.241 125.683 286.835L116.737 291.996C115.7 292.59 115.7 293.556 116.737 294.155ZM99.5668 284.244L110.2 290.381C111.232 290.975 112.908 290.975 113.94 290.381L122.886 285.22C123.919 284.627 123.919 283.655 122.886 283.062L112.253 276.924C111.221 276.324 109.545 276.324 108.513 276.924L99.5668 282.085C98.5346 282.679 98.5346 283.644 99.5668 284.244ZM118.208 313.129L128.841 319.267C129.873 319.867 131.549 319.867 132.582 319.267L141.528 314.106C142.56 313.507 142.56 312.541 141.528 311.947L130.894 305.809C129.862 305.216 128.186 305.216 127.154 305.809L118.208 310.971C117.176 311.564 117.176 312.536 118.208 313.129ZM101.037 303.218L111.671 309.356C112.703 309.949 114.379 309.949 115.411 309.356L124.357 304.195C125.389 303.601 125.389 302.629 124.357 302.036L113.724 295.898C112.692 295.298 111.016 295.298 109.983 295.898L101.037 301.059C100.005 301.653 100.005 302.618 101.037 303.218ZM83.8669 293.306L94.5 299.444C95.5323 300.038 97.2082 300.038 98.2405 299.444L107.186 294.283C108.219 293.689 108.219 292.718 107.186 292.124L96.5534 285.986C95.5212 285.387 93.8452 285.387 92.8129 285.986L83.8669 291.147C82.8347 291.741 82.8347 292.707 83.8669 293.306ZM336.93 385.114L353.102 394.448C354.134 395.047 355.81 395.047 356.842 394.448L365.788 389.287C366.82 388.688 366.82 387.722 365.788 387.128L349.616 377.794C348.584 377.2 346.908 377.2 345.876 377.794L336.93 382.955C335.898 383.549 335.898 384.514 336.93 385.114ZM319.759 375.196L330.392 381.334C331.425 381.928 333.101 381.928 334.133 381.334L343.079 376.173C344.111 375.579 344.111 374.608 343.079 374.014L332.446 367.876C331.414 367.277 329.738 367.277 328.705 367.876L319.759 373.038C318.727 373.637 318.727 374.603 319.759 375.196ZM302.589 365.285L313.222 371.423C314.254 372.022 315.93 372.022 316.962 371.423L325.908 366.262C326.941 365.662 326.941 364.697 325.908 364.103L315.275 357.965C314.243 357.365 312.567 357.365 311.535 357.965L302.589 363.126C301.557 363.72 301.557 364.691 302.589 365.285ZM285.424 355.373L296.057 361.511C297.089 362.11 298.765 362.11 299.797 361.511L308.743 356.35C309.776 355.751 309.776 354.785 308.743 354.191L298.11 348.053C297.078 347.459 295.402 347.459 294.37 348.053L285.424 353.214C284.386 353.808 284.386 354.774 285.424 355.373ZM268.253 345.462L278.886 351.599C279.919 352.193 281.595 352.193 282.627 351.599L291.573 346.438C292.605 345.844 292.605 344.873 291.573 344.279L280.94 338.142C279.908 337.542 278.232 337.542 277.199 338.142L268.253 343.303C267.221 343.897 267.221 344.862 268.253 345.462ZM251.083 335.544L261.716 341.682C262.748 342.276 264.424 342.276 265.456 341.682L274.402 336.521C275.435 335.927 275.435 334.956 274.402 334.362L263.769 328.224C262.737 327.625 261.061 327.625 260.029 328.224L251.083 333.386C250.051 333.985 250.051 334.951 251.083 335.544ZM233.912 325.633L244.545 331.771C245.578 332.37 247.254 332.37 248.286 331.771L257.232 326.609C258.264 326.01 258.264 325.044 257.232 324.451L246.599 318.313C245.566 317.713 243.89 317.713 242.858 318.313L233.912 323.474C232.88 324.068 232.88 325.039 233.912 325.633ZM216.742 315.721L227.375 321.859C228.407 322.458 230.083 322.458 231.115 321.859L240.061 316.698C241.093 316.098 241.093 315.133 240.061 314.539L229.428 308.401C228.396 307.807 226.72 307.807 225.688 308.401L216.742 313.562C215.709 314.156 215.709 315.122 216.742 315.721ZM199.571 305.809L210.204 311.947C211.236 312.541 212.912 312.541 213.945 311.947L222.891 306.786C223.923 306.192 223.923 305.221 222.891 304.627L212.258 298.489C211.225 297.89 209.549 297.89 208.517 298.489L199.571 303.651C198.539 304.244 198.539 305.21 199.571 305.809ZM182.406 295.892L193.039 302.03C194.071 302.624 195.747 302.624 196.78 302.03L205.726 296.869C206.758 296.275 206.758 295.304 205.726 294.71L195.093 288.572C194.06 287.973 192.384 287.973 191.352 288.572L182.406 293.733C181.368 294.333 181.368 295.298 182.406 295.892ZM327.257 397.356L337.89 403.494C338.922 404.093 340.598 404.093 341.63 403.494L350.576 398.333C351.609 397.733 351.609 396.768 350.576 396.174L339.943 390.036C338.911 389.442 337.235 389.442 336.203 390.036L327.257 395.197C326.225 395.791 326.225 396.757 327.257 397.356ZM310.086 387.439L320.719 393.577C321.752 394.171 323.428 394.171 324.46 393.577L333.406 388.416C334.438 387.822 334.438 386.851 333.406 386.257L322.773 380.119C321.741 379.525 320.065 379.525 319.032 380.119L310.086 385.28C309.054 385.879 309.054 386.845 310.086 387.439ZM292.916 377.527L303.549 383.665C304.581 384.259 306.257 384.259 307.289 383.665L316.235 378.504C317.268 377.91 317.268 376.939 316.235 376.345L305.602 370.207C304.57 369.608 302.894 369.608 301.862 370.207L292.916 375.368C291.884 375.962 291.884 376.933 292.916 377.527ZM275.745 367.616L286.378 373.754C287.411 374.353 289.087 374.353 290.119 373.754L299.065 368.592C300.097 367.993 300.097 367.027 299.065 366.434L288.432 360.296C287.4 359.696 285.724 359.696 284.691 360.296L275.745 365.457C274.713 366.051 274.713 367.016 275.745 367.616ZM296.118 415.331L306.751 421.469C307.783 422.063 309.459 422.063 310.491 421.469L319.437 416.308C320.47 415.714 320.47 414.743 319.437 414.149L308.804 408.011C307.772 407.412 306.096 407.412 305.064 408.011L296.118 413.173C295.086 413.766 295.086 414.732 296.118 415.331ZM278.953 405.42L289.586 411.558C290.618 412.151 292.294 412.151 293.327 411.558L302.273 406.396C303.305 405.803 303.305 404.831 302.273 404.238L291.639 398.1C290.607 397.5 288.931 397.5 287.899 398.1L278.953 403.261C277.915 403.855 277.915 404.82 278.953 405.42ZM261.782 395.503L272.416 401.64C273.448 402.24 275.124 402.24 276.156 401.64L285.102 396.479C286.134 395.88 286.134 394.914 285.102 394.32L274.469 388.183C273.437 387.589 271.761 387.589 270.728 388.183L261.782 393.344C260.75 393.943 260.75 394.909 261.782 395.503ZM244.612 385.591L255.245 391.729C256.277 392.328 257.953 392.328 258.985 391.729L267.931 386.568C268.964 385.968 268.964 385.003 267.931 384.409L257.298 378.271C256.266 377.677 254.59 377.677 253.558 378.271L244.612 383.432C243.58 384.026 243.58 384.997 244.612 385.591ZM136.161 322.974L152.333 332.309C153.365 332.908 155.041 332.908 156.073 332.309L165.019 327.148C166.051 326.548 166.051 325.583 165.019 324.989L148.848 315.654C147.815 315.055 146.139 315.055 145.107 315.654L136.161 320.816C135.129 321.415 135.129 322.381 136.161 322.974ZM258.58 357.704L269.213 363.842C270.246 364.441 271.922 364.441 272.954 363.842L281.9 358.681C282.932 358.081 282.932 357.116 281.9 356.522L271.267 350.384C270.235 349.79 268.559 349.79 267.526 350.384L258.58 355.545C257.543 356.139 257.543 357.105 258.58 357.704ZM241.41 347.787L252.043 353.925C253.075 354.519 254.751 354.519 255.783 353.925L264.729 348.764C265.762 348.17 265.762 347.199 264.729 346.605L254.096 340.467C253.064 339.873 251.388 339.873 250.356 340.467L241.41 345.628C240.378 346.227 240.378 347.193 241.41 347.787ZM224.239 337.875L234.872 344.013C235.905 344.607 237.581 344.607 238.613 344.013L247.559 338.852C248.591 338.258 248.591 337.287 247.559 336.693L236.926 330.555C235.893 329.956 234.217 329.956 233.185 330.555L224.239 335.716C223.207 336.31 223.207 337.281 224.239 337.875ZM207.069 327.964L217.702 334.101C218.734 334.701 220.41 334.701 221.442 334.101L230.388 328.94C231.42 328.341 231.42 327.375 230.388 326.781L219.755 320.644C218.723 320.044 217.047 320.044 216.015 320.644L207.069 325.805C206.036 326.399 206.036 327.364 207.069 327.964ZM189.898 318.052L200.531 324.19C201.563 324.789 203.239 324.789 204.272 324.19L213.218 319.029C214.25 318.429 214.25 317.464 213.218 316.87L202.585 310.732C201.552 310.138 199.876 310.138 198.844 310.732L189.898 315.893C188.866 316.487 188.866 317.453 189.898 318.052ZM167.195 304.944L183.366 314.278C184.398 314.872 186.074 314.872 187.107 314.278L196.053 309.117C197.085 308.523 197.085 307.552 196.053 306.958L179.881 297.624C178.849 297.024 177.173 297.024 176.141 297.624L167.195 302.785C166.162 303.379 166.162 304.344 167.195 304.944ZM305.73 403.122L321.902 412.457C322.934 413.056 324.61 413.056 325.642 412.457L334.588 407.295C335.62 406.696 335.62 405.73 334.588 405.137L318.416 395.802C317.384 395.203 315.708 395.203 314.676 395.802L305.73 400.963C304.698 401.563 304.698 402.528 305.73 403.122ZM288.559 393.211L299.192 399.348C300.225 399.942 301.901 399.942 302.933 399.348L311.879 394.187C312.911 393.593 312.911 392.622 311.879 392.028L301.246 385.891C300.214 385.291 298.538 385.291 297.505 385.891L288.559 391.052C287.527 391.646 287.527 392.617 288.559 393.211ZM271.389 383.299L282.027 389.437C283.06 390.036 284.736 390.036 285.768 389.437L294.714 384.276C295.746 383.676 295.746 382.711 294.714 382.117L284.081 375.979C283.049 375.385 281.373 375.385 280.34 375.979L271.394 381.14C270.357 381.734 270.357 382.7 271.389 383.299ZM254.224 373.387L264.857 379.525C265.889 380.125 267.565 380.125 268.597 379.525L277.543 374.364C278.576 373.765 278.576 372.799 277.543 372.205L266.91 366.067C265.878 365.473 264.202 365.473 263.17 366.067L254.224 371.228C253.186 371.822 253.186 372.788 254.224 373.387ZM237.053 363.47L247.686 369.608C248.719 370.202 250.395 370.202 251.427 369.608L260.373 364.447C261.405 363.853 261.405 362.882 260.373 362.288L249.74 356.15C248.708 355.551 247.032 355.551 245.999 356.15L237.053 361.311C236.021 361.911 236.021 362.876 237.053 363.47ZM158.482 336.044L238.002 381.956C239.035 382.55 240.71 382.55 241.743 381.956L250.689 376.795C251.721 376.201 251.721 375.23 250.689 374.636L171.168 328.724C170.136 328.125 168.46 328.125 167.428 328.724L158.482 333.885C157.449 334.479 157.449 335.444 158.482 336.044ZM219.883 353.558L230.516 359.696C231.548 360.29 233.224 360.29 234.256 359.696L243.202 354.535C244.235 353.941 244.235 352.97 243.202 352.376L232.569 346.238C231.537 345.639 229.861 345.639 228.829 346.238L219.883 351.4C218.851 351.993 218.851 352.965 219.883 353.558ZM202.712 343.647L213.345 349.785C214.378 350.384 216.054 350.384 217.086 349.785L226.032 344.624C227.064 344.024 227.064 343.059 226.032 342.465L215.399 336.327C214.366 335.733 212.69 335.733 211.658 336.327L202.712 341.488C201.68 342.082 201.68 343.047 202.712 343.647ZM185.542 333.735L196.175 339.873C197.207 340.472 198.883 340.472 199.915 339.873L208.861 334.712C209.893 334.113 209.893 333.147 208.861 332.553L198.228 326.41C197.196 325.816 195.52 325.816 194.488 326.41L185.542 331.571C184.509 332.17 184.509 333.136 185.542 333.735ZM168.371 323.818L179.004 329.956C180.036 330.55 181.712 330.55 182.745 329.956L191.691 324.795C192.723 324.201 192.723 323.23 191.691 322.636L181.058 316.498C180.025 315.899 178.349 315.899 177.317 316.498L168.371 321.659C167.339 322.259 167.339 323.224 168.371 323.818ZM151.206 313.906L161.839 320.044C162.871 320.644 164.547 320.644 165.58 320.044L174.526 314.883C175.558 314.289 175.558 313.318 174.526 312.724L163.893 306.586C162.86 305.987 161.184 305.987 160.152 306.586L151.206 311.748C150.168 312.341 150.168 313.313 151.206 313.906ZM180.902 276.935L191.535 283.073C192.567 283.666 194.243 283.666 195.276 283.073L204.222 277.911C205.254 277.318 205.254 276.346 204.222 275.753L193.589 269.615C192.556 269.015 190.88 269.015 189.848 269.615L180.902 274.776C179.87 275.37 179.87 276.335 180.902 276.935ZM163.732 267.018L174.365 273.155C175.397 273.749 177.073 273.749 178.105 273.155L187.051 267.994C188.083 267.4 188.083 266.429 187.051 265.835L176.418 259.698C175.386 259.098 173.71 259.098 172.678 259.698L163.732 264.859C162.699 265.458 162.699 266.424 163.732 267.018ZM146.567 257.106L157.2 263.244C158.232 263.843 159.908 263.843 160.94 263.244L169.886 258.083C170.918 257.483 170.918 256.518 169.886 255.924L159.253 249.786C158.221 249.192 156.545 249.192 155.513 249.786L146.567 254.947C145.529 255.541 145.529 256.512 146.567 257.106ZM130.906 266.146L141.539 272.284C142.571 272.884 144.247 272.884 145.279 272.284L154.225 267.123C155.257 266.524 155.257 265.558 154.225 264.964L143.592 258.826C142.56 258.232 140.884 258.232 139.852 258.826L130.906 263.987C129.873 264.581 129.873 265.552 130.906 266.146Z" fill="#1C1616"/>
<path opacity="0.2" d="M85.0043 374.558L163.898 420.104C165.674 421.125 168.548 421.125 170.319 420.104L222.607 389.914C224.383 388.893 224.383 387.228 222.607 386.207L143.714 340.656C141.938 339.629 139.063 339.629 137.293 340.656L85.0043 370.846C83.2284 371.872 83.2284 373.532 85.0043 374.558Z" fill="#E0DAE2"/>
<path d="M222.607 387.156L143.714 341.605C141.938 340.584 139.063 340.584 137.293 341.605L85.0042 371.795C84.3272 372.183 83.9109 372.672 83.7555 373.177C83.4947 372.355 83.9109 371.484 85.0042 370.846L137.293 340.656C139.069 339.635 141.943 339.635 143.714 340.656L222.607 386.207C223.706 386.84 224.117 387.717 223.856 388.538C223.7 388.033 223.284 387.55 222.607 387.156Z" fill="#B8BFC4"/>
<path d="M145.162 276.291L156.939 269.492C158.221 268.749 160.307 268.749 161.589 269.492L188.533 285.048C189.254 285.464 189.526 286.025 189.437 286.574C189.46 286.696 189.46 286.813 189.437 286.935C189.46 287.057 189.46 287.174 189.437 287.296C189.532 287.84 189.26 288.4 188.533 288.822L165.047 302.38C163.765 303.123 161.678 303.123 160.396 302.38L115.699 276.574C114.978 276.158 114.706 275.597 114.795 275.048C114.773 274.926 114.773 274.809 114.795 274.687C114.773 274.565 114.773 274.448 114.795 274.326C114.701 273.782 114.972 273.222 115.699 272.8L124.44 267.755C125.295 267.261 126.677 267.261 127.531 267.75L142.549 276.296C143.276 276.707 144.441 276.707 145.162 276.291Z" fill="#B2B2B2"/>
<path d="M115.7 272.329L124.44 267.284C125.295 266.79 126.677 266.79 127.531 267.278L142.549 275.825C143.276 276.236 144.441 276.236 145.162 275.819L156.939 269.021C158.221 268.277 160.307 268.277 161.589 269.021L188.533 284.577C189.815 285.32 189.815 286.519 188.533 287.263L165.047 300.82C163.765 301.564 161.678 301.564 160.396 300.82L115.7 275.015C114.412 274.277 114.412 273.072 115.7 272.329Z" fill="#1C1616"/>
<path d="M285.924 449.057L276.728 454.351C275.657 454.967 274.791 454.601 274.791 453.53C274.791 452.458 275.662 451.088 276.733 450.472L285.929 445.177C287 444.561 287.866 444.928 287.866 445.999C287.866 447.07 286.995 448.441 285.924 449.057Z" fill="#030000"/>
<path d="M273.232 450.51L271.955 451.249L276.495 453.868L277.771 453.13L273.232 450.51ZM276.045 448.89L274.769 449.628L279.308 452.248L280.585 451.509L276.045 448.89ZM278.859 447.264L277.582 448.002L282.122 450.621L283.398 449.883L278.859 447.264ZM281.672 445.638L280.396 446.376L284.936 448.995L286.212 448.257L281.672 445.638Z" fill="#A37308"/>
<g opacity="0.3">
<g opacity="0.3">
<path opacity="0.86" d="M181.545 222.626L400.406 348.059L427.438 170.082L208.572 44.6553L181.545 222.626Z" fill="#F2F2F2"/>
<path opacity="0.3" d="M208.489 45.2213L427.349 170.648L429.025 159.616L210.165 34.1831L208.489 45.2213Z" fill="#636363"/>
</g>
</g>
<g opacity="0.6">
<g opacity="0.6">
<path opacity="0.86" d="M150.24 222.177L375.144 352.349L393.808 167.813L168.904 37.6464L150.24 222.177Z" fill="#EAEAEA"/>
<path opacity="0.6" d="M168.848 38.2346L393.747 168.401L394.907 156.958L170.002 26.7913L168.848 38.2346Z" fill="#636363"/>
</g>
</g>
<path opacity="0.67" d="M109.522 214.33L347.901 351.955V157.091L109.522 19.46V214.33Z" fill="white"/>
<path d="M109.522 20.0815L347.901 157.707V145.625L109.522 8V20.0815Z" fill="#636363"/>
<path opacity="0.1" d="M335.864 198.668L368.585 187.952L438.704 288.989V374.83L335.864 315.455V198.668Z" fill="black"/>
<path d="M359.8 221.322L429.92 271.852V357.693C422.378 353.337 350.682 311.948 292.888 278.578V192.736L359.8 221.322Z" fill="#FFCF66"/>
<path d="M429.92 271.851L424.764 274.032L354.9 272.812L296.168 200.827L292.888 192.736L359.8 170.815L429.92 271.851Z" fill="#EFB94B"/>
<path opacity="0.8" d="M429.919 271.852V357.693L424.764 350.712V274.033L429.919 271.852Z" fill="#F4BF56"/>
<path opacity="0.5" d="M296.179 276.474L424.764 350.712L429.92 357.693L292.888 278.578L296.179 276.474Z" fill="#F4BF56"/>
<path opacity="0.2" d="M296.19 200.789L296.179 276.474L292.888 278.578V192.736L296.19 200.789Z" fill="#F4BF56"/>
<path opacity="0.8" d="M295.996 276.225C296.129 276.18 354.45 272.268 354.45 272.268L354.877 272.789L296.234 276.724L293.154 278.733C293.065 278.683 292.977 278.628 292.882 278.578V278.25L295.996 276.225Z" fill="#F4BF56"/>
<path opacity="0.8" d="M424.986 350.551L429.919 357.238V357.699C429.764 357.61 429.537 357.477 429.32 357.355L424.559 350.9L354.877 272.806L355.627 272.817L424.986 350.551Z" fill="#F4BF56"/>
<path d="M306.34 246.795L414.974 309.517V223.248L306.34 160.531V246.795Z" fill="#FFFAEB"/>
<path d="M325.226 217.626L396.683 258.882C400.395 261.024 403.409 259.753 403.409 256.041V242.056C403.409 238.343 400.401 233.592 396.683 231.45L325.226 190.194C321.513 188.052 318.5 189.323 318.5 193.036V207.021C318.505 210.734 321.513 215.484 325.226 217.626Z" fill="url(#paint2_linear)"/>
<path d="M394.99 241.062C396.76 243.11 397.371 245.724 396.344 246.906C395.323 248.088 393.053 247.389 391.283 245.341C389.513 243.293 388.902 240.679 389.929 239.497C390.956 238.315 393.22 239.014 394.99 241.062ZM377.231 232.161C376.21 233.343 376.815 235.957 378.585 238.004C380.356 240.052 382.626 240.751 383.647 239.569C384.668 238.387 384.063 235.773 382.293 233.726C380.517 231.683 378.252 230.984 377.231 232.161ZM364.528 224.83C363.507 226.012 364.112 228.626 365.882 230.673C367.653 232.721 369.922 233.42 370.944 232.238C371.965 231.056 371.36 228.442 369.589 226.395C367.819 224.347 365.549 223.648 364.528 224.83ZM351.825 217.499C350.804 218.681 351.409 221.294 353.179 223.342C354.95 225.39 357.219 226.089 358.24 224.907C359.262 223.725 358.657 221.111 356.886 219.064C355.116 217.016 352.852 216.316 351.825 217.499ZM339.128 210.162C338.106 211.344 338.711 213.958 340.482 216.006C342.252 218.053 344.522 218.753 345.543 217.571C346.564 216.389 345.959 213.775 344.189 211.727C342.413 209.685 340.149 208.98 339.128 210.162ZM326.424 202.831C325.403 204.013 326.008 206.627 327.779 208.675C329.549 210.722 331.819 211.422 332.84 210.24C333.861 209.058 333.256 206.444 331.486 204.396C329.715 202.348 327.446 201.649 326.424 202.831Z" fill="#FFFAEB"/>
<path d="M140.723 58.141V61.5762L268.447 138.128V134.687L140.723 58.141Z" fill="#DADFE0"/>
<path d="M140.723 66.3434V69.7842L268.447 146.33V142.895L140.723 66.3434Z" fill="#DADFE0"/>
<path d="M140.723 74.5514V77.9866L268.447 154.533V151.097L140.723 74.5514Z" fill="#DADFE0"/>
<path d="M140.723 82.7537V86.1889L268.447 162.74V159.305L140.723 82.7537Z" fill="#DADFE0"/>
<path d="M140.723 90.9559V94.3967L268.447 170.948V167.507L140.723 90.9559Z" fill="#DADFE0"/>
<path d="M140.723 99.1638V102.599L234.345 158.717V155.276L140.723 99.1638Z" fill="#DADFE0"/>
<path d="M140.723 119.675V123.116L268.447 199.662V196.227L140.723 119.675Z" fill="#DADFE0"/>
<path d="M140.723 127.883V131.318L268.447 207.87V204.435L140.723 127.883Z" fill="#DADFE0"/>
<path d="M140.723 162.946V166.381L268.447 242.927V239.492L140.723 162.946Z" fill="#DADFE0"/>
<path d="M140.723 171.143V174.583L268.447 251.135V247.694L140.723 171.143Z" fill="#DADFE0"/>
<path d="M140.723 179.35V182.786L268.447 259.337V255.902L140.723 179.35Z" fill="#DADFE0"/>
<path d="M140.723 187.558V190.994L268.447 267.545V264.104L140.723 187.558Z" fill="#DADFE0"/>
<path d="M140.723 195.76V199.201L268.447 275.747V272.312L140.723 195.76Z" fill="#DADFE0"/>
<path opacity="0.1" d="M149.808 332.909L200.237 362.216C204.072 364.342 207.723 365.407 210.537 365.413L292.289 365.535C291.895 365.535 291.445 365.463 291.018 365.418C294.525 365.768 297.072 364.752 297.577 362.272L298.676 356.905C298.693 356.816 298.671 356.711 298.682 356.617H328.223C339.066 356.617 345.537 354.153 346.453 349.674C347.496 344.607 340.959 337.737 328.539 330.816C307.467 319.079 274.746 309.883 254.052 309.883H229.65L216.869 302.791C213.012 300.649 209.344 299.583 206.525 299.589C206.536 299.589 206.541 299.589 206.552 299.589L149.491 299.505L149.808 332.909ZM247.187 319.623H261.793C276.522 319.623 302.178 326.982 317.811 335.689C324.482 339.402 328.383 342.898 327.984 344.813C327.618 346.622 323.122 346.888 320.481 346.888H293.72C291.678 344.846 289.136 342.898 286.29 341.316L247.187 319.623Z" fill="black"/>
<path opacity="0.1" d="M112.125 372.622L146.145 372.644C148.054 372.649 149.319 372.155 149.674 371.284L149.863 370.807C150.079 370.285 150.84 369.991 151.988 369.991L157.632 369.997C157.211 367.155 158.975 364.98 162.671 363.837L162.66 363.82C162.921 363.737 163.215 363.676 163.498 363.603C163.848 363.515 164.209 363.431 164.592 363.365C165.119 363.265 165.674 363.182 166.262 363.121C166.512 363.093 166.767 363.071 167.028 363.048C167.838 362.982 168.682 362.938 169.592 362.938C170.335 362.938 171.096 362.965 171.867 363.01C174.159 363.137 176.584 363.459 179.071 363.931L179.065 363.92C179.17 363.942 179.281 363.97 179.392 363.992C180.33 364.175 181.279 364.38 182.234 364.608C182.356 364.636 182.472 364.663 182.595 364.691C184.842 365.241 187.112 365.907 189.365 366.672C189.465 366.706 189.57 366.745 189.67 366.778C190.309 367 190.952 367.216 191.585 367.455C191.574 367.449 191.557 367.444 191.546 367.438L197.262 369.558C201.941 371.295 206.458 373.449 210.387 375.851C212.801 377.333 214.993 378.909 216.869 380.546C219.971 383.266 221.797 385.824 222.413 388.038C222.424 388.088 222.43 388.133 222.441 388.177C222.491 388.377 222.535 388.577 222.563 388.771C222.574 388.849 222.585 388.921 222.596 388.999C222.624 389.232 222.641 389.454 222.641 389.676C222.641 389.698 222.641 389.72 222.641 389.737C222.635 389.975 222.613 390.208 222.574 390.436C222.563 390.502 222.546 390.564 222.535 390.63C222.502 390.802 222.457 390.969 222.402 391.135C222.38 391.196 222.363 391.257 222.341 391.318C222.263 391.529 222.169 391.74 222.052 391.94C222.041 391.957 222.03 391.973 222.019 391.995C221.914 392.178 221.792 392.356 221.658 392.523C221.614 392.578 221.57 392.634 221.52 392.689C221.403 392.828 221.27 392.967 221.131 393.1C221.081 393.144 221.037 393.194 220.992 393.233C220.804 393.399 220.598 393.566 220.382 393.721C220.338 393.749 220.293 393.777 220.249 393.805C220.06 393.932 219.86 394.049 219.655 394.165C219.577 394.21 219.5 394.248 219.422 394.287C219.211 394.393 218.989 394.498 218.761 394.598C218.7 394.626 218.639 394.654 218.573 394.681C218.279 394.798 217.968 394.909 217.64 395.014C217.563 395.037 217.479 395.059 217.396 395.086C217.135 395.164 216.863 395.236 216.586 395.303C216.481 395.331 216.37 395.353 216.259 395.381C215.942 395.453 215.615 395.514 215.271 395.569C215.215 395.58 215.16 395.592 215.099 395.597C214.699 395.658 214.283 395.714 213.856 395.758C213.739 395.769 213.617 395.78 213.5 395.791C213.167 395.819 212.823 395.847 212.474 395.863C212.341 395.869 212.207 395.88 212.069 395.886C211.597 395.902 211.114 395.919 210.615 395.919C204.049 395.913 196.136 394.193 188.644 391.413L182.928 389.293C183.31 389.437 183.699 389.565 184.087 389.698C183.849 389.615 183.616 389.52 183.377 389.431C182.861 389.243 182.345 389.06 181.829 388.86C181.079 388.571 180.341 388.26 179.603 387.95C179.581 387.939 179.559 387.933 179.537 387.922L173.915 387.916C173.565 387.916 173.127 387.828 172.694 387.678L166.184 385.369C165.346 385.069 164.514 384.914 163.859 384.925C161.095 384.975 153.609 385.108 152.016 385.036C151.284 385.003 147.843 384.32 145.906 383.982C145.001 383.821 144.219 383.826 143.681 383.987C142.621 384.309 140.773 384.87 139.685 385.225C139.385 385.319 138.93 385.314 138.408 385.197C137.554 385.014 136.344 384.742 135.573 384.564C134.291 384.265 130.889 385.397 129.734 385.258C128.53 385.114 123.236 384.176 120.838 383.749C120.072 383.615 119.429 383.638 119.062 383.821C117.969 384.348 115.672 385.48 114.778 385.93C114.539 386.046 114.206 386.102 113.801 386.107C113.385 386.107 112.902 386.046 112.397 385.924L112.114 385.857V372.622H112.125Z" fill="black"/>
<path d="M223.057 294.949L230.821 290.465C233.967 288.645 235.543 286.264 235.538 283.878L235.71 352.116C235.716 354.497 234.145 356.883 230.998 358.703L223.234 363.187C216.98 366.8 206.869 366.8 200.653 363.187L200.481 294.949C206.697 298.562 216.802 298.562 223.057 294.949Z" fill="#D88F25"/>
<path d="M144.724 262.545L200.481 294.949C203.517 296.714 207.485 297.602 211.475 297.641V365.868C207.546 365.801 203.65 364.924 200.659 363.182L144.896 330.783C141.816 328.996 140.273 326.648 140.268 324.301L140.096 256.063C140.101 258.41 141.644 260.758 144.724 262.545Z" fill="url(#paint3_linear)"/>
<path d="M144.813 249.475L152.577 244.991C158.831 241.378 168.943 241.378 175.142 244.98L230.899 277.384C237.114 280.997 237.081 286.852 230.827 290.465L223.063 294.949C216.808 298.562 206.697 298.562 200.481 294.949L144.724 262.545C138.52 258.943 138.553 253.088 144.813 249.475Z" fill="#FFCA5F"/>
<path d="M151.556 251.634C150.279 254.381 153.104 257.2 157.86 257.938C162.616 258.676 167.505 257.045 168.782 254.298C170.058 251.551 167.233 248.732 162.477 247.993C157.721 247.261 152.832 248.887 151.556 251.634Z" fill="#D88F25"/>
<path d="M205.215 282.507C203.938 285.254 206.763 288.073 211.519 288.811C216.275 289.549 221.165 287.917 222.441 285.17C223.717 282.423 220.893 279.604 216.137 278.866C211.381 278.133 206.491 279.76 205.215 282.507Z" fill="#D88F25"/>
<path d="M220.632 282.523V251.029C220.632 233.736 207.324 212.504 190.337 202.697C180.325 196.915 170.375 196.021 163.044 200.261C156.562 204.002 152.993 211.05 152.993 220.112V251.989C152.993 257.955 167.078 258.166 167.078 251.989V220.112C167.078 217.903 167.467 213.969 170.086 212.459C172.855 210.855 177.917 211.788 183.289 214.895C195.897 222.171 206.542 238.72 206.542 251.029V282.523C206.542 288.778 220.632 289.405 220.632 282.523Z" fill="#B2B2B2"/>
<path d="M167.167 297.047C167.167 293.195 170.286 291.88 174.137 294.1C177.989 296.325 181.108 301.248 181.108 305.094C181.108 307.463 179.92 308.867 178.111 309.084V328.347C178.111 330.539 176.329 331.293 174.137 330.028C171.945 328.763 170.164 325.955 170.164 323.763V304.5C168.355 302.197 167.167 299.422 167.167 297.047Z" fill="#725B36"/>
<path d="M181.668 205.761C180.957 206.898 178.271 205.666 177.345 205.483C172.422 204.529 168.005 204.39 162.255 209.69C161.334 210.539 159.913 212.143 158.876 211.099C157.877 210.095 158.77 208.813 159.358 207.814C165.624 197.209 184.06 201.937 181.668 205.761Z" fill="url(#paint4_linear)"/>
<path d="M113.891 385.741L117.592 383.588C117.637 383.521 117.687 383.454 117.737 383.393L114.035 385.547C113.985 385.608 113.935 385.674 113.891 385.741Z" fill="#505B60"/>
<path d="M114.617 386.84C114.85 386.707 115.056 386.501 115.211 386.224L121.282 375.641L124.984 373.487L118.913 384.07C118.835 384.209 118.741 384.331 118.641 384.431C118.541 384.537 118.43 384.62 118.313 384.686C118.147 384.781 117.964 384.886 117.786 384.992L116.859 385.53C116.088 385.985 115.289 386.451 114.617 386.84Z" fill="#CE8D38"/>
<path d="M97.1081 274.848C101.293 280.359 106.276 285.032 111.698 288.162C116.421 290.875 120.86 292.03 124.723 291.791L124.717 300.487C124.717 300.942 124.568 301.298 124.307 301.486L120.278 304.211C119.762 304.561 119.484 305.249 119.506 306.137C119.595 309.866 119.839 319.95 119.712 321.837C119.656 322.708 118.458 325.477 117.869 327.159C117.592 327.941 117.597 328.963 117.88 330.067C118.446 332.253 119.429 336.061 120.05 338.364C120.217 338.991 120.2 339.562 120.006 339.962C119.684 340.611 119.212 341.521 118.896 342.071C118.369 342.986 120.35 350.24 120.111 351.405C119.862 352.61 118.224 357.177 117.481 359.23C117.242 359.891 117.287 360.79 117.608 361.722C118.535 364.464 120.516 370.28 121.293 372.555C121.493 373.149 121.599 373.737 121.604 374.27C121.604 374.808 121.493 375.28 121.282 375.635L115.211 386.218C114.634 387.223 113.496 387.267 112.347 386.601C111.826 386.301 111.315 385.846 110.843 385.28L110.871 335.905L110.888 303.756L105.605 293.839L105.555 374.958L102.719 369.159C102.058 367.804 101.698 366.4 101.703 365.163L101.736 296.403C101.742 293.928 100.882 291.053 99.3612 288.423L98.5343 286.996C97.6186 285.409 97.1081 283.683 97.1025 282.185L97.1081 274.848Z" fill="#F4C151"/>
<path d="M110.783 385.208C110.805 385.236 110.822 385.264 110.844 385.291V385.308C110.822 385.275 110.805 385.236 110.783 385.208Z" fill="url(#paint5_linear)"/>
<path d="M105.605 293.85L105.555 374.969L109.856 383.776C110.139 384.348 110.472 384.858 110.838 385.302L110.866 335.916L110.882 303.767L105.605 293.85Z" fill="#E5AC3F"/>
<path d="M113.047 303.806L112.819 385.613C112.864 385.547 112.914 385.48 112.964 385.419L119.035 374.836C119.246 374.481 119.351 374.009 119.357 373.471C119.351 372.932 119.251 372.35 119.046 371.756C118.264 369.48 116.293 363.67 115.361 360.923C115.039 359.991 114.995 359.092 115.233 358.431C115.977 356.372 117.609 351.81 117.864 350.606C118.108 349.441 116.121 342.187 116.649 341.272C116.965 340.722 117.431 339.807 117.759 339.163C117.953 338.769 117.969 338.197 117.803 337.565C117.187 335.261 116.199 331.46 115.633 329.268C115.35 328.158 115.344 327.137 115.622 326.36C116.21 324.678 117.409 321.909 117.464 321.038C117.542 319.9 117.487 315.804 117.409 311.909L113.047 303.806Z" fill="#E5AC3F"/>
<path d="M117.609 361.728C117.287 360.795 117.242 359.896 117.481 359.236C118.225 357.177 119.856 352.615 120.111 351.411C120.35 350.245 118.369 342.992 118.896 342.076C119.212 341.527 119.679 340.611 120.006 339.967C120.2 339.573 120.217 339.002 120.05 338.369C119.434 336.066 118.447 332.265 117.88 330.072C117.592 328.963 117.592 327.941 117.869 327.164C118.458 325.483 119.656 322.714 119.712 321.842C119.839 319.955 119.595 309.866 119.507 306.142C119.484 305.255 119.762 304.566 120.278 304.217L124.307 301.492L128.009 299.339L123.98 302.063C123.463 302.413 123.186 303.101 123.208 303.989C123.297 307.719 123.541 317.802 123.413 319.689C123.358 320.56 122.159 323.33 121.571 325.011C121.293 325.794 121.299 326.815 121.582 327.919C122.148 330.106 123.13 333.913 123.752 336.216C123.918 336.843 123.902 337.415 123.708 337.814C123.386 338.463 122.914 339.374 122.598 339.923C122.07 340.839 124.052 348.092 123.813 349.258C123.563 350.462 121.926 355.029 121.183 357.082C120.944 357.743 120.988 358.642 121.31 359.574C122.237 362.316 124.218 368.132 124.995 370.407C125.195 371.001 125.3 371.589 125.306 372.122C125.306 372.66 125.195 373.132 124.984 373.487L121.282 375.64C121.493 375.28 121.599 374.814 121.604 374.275C121.599 373.737 121.493 373.154 121.293 372.56C120.511 370.285 118.53 364.469 117.609 361.728Z" fill="#CE8D38"/>
<path d="M124.717 300.487L124.723 291.791L128.424 289.638L128.419 298.334C128.419 298.789 128.269 299.144 128.008 299.333L124.307 301.486C124.567 301.298 124.712 300.943 124.717 300.487Z" fill="#CE8D38"/>
<path d="M104.833 239.059C104.833 236.878 105.599 235.34 106.842 234.619L110.544 232.466C109.3 233.187 108.535 234.724 108.535 236.905C108.529 239.874 109.95 243.282 112.053 245.846C113.046 247.061 114.195 248.082 115.416 248.787C116.138 249.203 116.837 249.475 117.492 249.608C118.568 249.836 119.528 249.703 120.3 249.253L116.598 251.406C115.821 251.856 114.861 251.989 113.79 251.762C113.135 251.623 112.436 251.351 111.715 250.94C110.494 250.235 109.345 249.214 108.351 247.999C106.248 245.435 104.833 242.028 104.833 239.059Z" fill="#CE8D38"/>
<path d="M84.7603 241.661C84.7492 252.605 89.6717 265.053 97.1082 274.848C101.293 280.359 106.276 285.032 111.626 288.117C116.421 290.876 120.861 292.03 124.723 291.791C133.036 291.281 138.669 284.327 138.675 272.628C138.692 255.53 126.666 234.747 111.809 226.172C96.8418 217.571 84.7658 224.53 84.7603 241.661ZM118.607 246.967C118.607 251.346 115.516 253.121 111.715 250.94C107.908 248.754 104.828 243.432 104.833 239.059C104.833 234.68 107.924 232.904 111.726 235.085C115.533 237.272 118.619 242.588 118.607 246.967Z" fill="#F4C151"/>
<path d="M115.511 224.019C120.267 226.766 124.723 230.762 128.597 235.485H128.602C128.686 235.584 128.763 235.695 128.846 235.795C129.196 236.228 129.54 236.667 129.879 237.111C130.012 237.283 130.145 237.455 130.273 237.632C130.678 238.171 131.072 238.714 131.46 239.269C131.494 239.319 131.532 239.369 131.571 239.425C131.993 240.03 132.398 240.64 132.798 241.256C132.914 241.434 133.025 241.611 133.136 241.789C133.436 242.261 133.73 242.738 134.013 243.215C134.119 243.393 134.23 243.576 134.335 243.754C134.707 244.392 135.073 245.03 135.423 245.679C135.456 245.74 135.484 245.801 135.517 245.862C135.833 246.456 136.144 247.056 136.444 247.655C136.544 247.849 136.638 248.049 136.732 248.249C136.977 248.754 137.215 249.264 137.448 249.775C137.526 249.947 137.609 250.125 137.687 250.297C137.981 250.963 138.264 251.634 138.536 252.306C138.586 252.433 138.636 252.561 138.686 252.688C138.908 253.243 139.113 253.804 139.319 254.364C139.391 254.57 139.463 254.775 139.535 254.98C139.724 255.524 139.901 256.068 140.073 256.612C140.118 256.762 140.173 256.912 140.218 257.062C140.423 257.739 140.617 258.421 140.8 259.098C140.845 259.265 140.884 259.426 140.922 259.592C141.056 260.125 141.183 260.652 141.3 261.185C141.344 261.39 141.389 261.596 141.433 261.801C141.555 262.389 141.666 262.972 141.766 263.56C141.783 263.66 141.805 263.76 141.821 263.854C141.932 264.526 142.021 265.197 142.099 265.869C142.121 266.052 142.138 266.23 142.154 266.413C142.204 266.923 142.249 267.428 142.282 267.933C142.293 268.127 142.31 268.322 142.321 268.516C142.354 269.176 142.376 269.837 142.376 270.486C142.371 279.027 139.369 285.037 134.513 287.862L130.811 290.015C135.667 287.19 138.669 281.18 138.675 272.639C138.675 271.99 138.653 271.33 138.619 270.669C138.608 270.475 138.597 270.281 138.58 270.087C138.547 269.581 138.503 269.076 138.453 268.566C138.436 268.383 138.42 268.205 138.397 268.022C138.32 267.356 138.231 266.685 138.12 266.008C138.103 265.908 138.081 265.808 138.064 265.713C137.964 265.131 137.853 264.542 137.731 263.954C137.687 263.749 137.643 263.544 137.598 263.338C137.482 262.805 137.354 262.278 137.221 261.745C137.176 261.579 137.143 261.418 137.099 261.252C136.921 260.574 136.727 259.892 136.516 259.215C136.472 259.065 136.422 258.915 136.372 258.765C136.2 258.221 136.022 257.678 135.833 257.134C135.761 256.928 135.689 256.723 135.617 256.518C135.417 255.957 135.206 255.402 134.984 254.842C134.934 254.714 134.884 254.586 134.834 254.459C134.563 253.787 134.28 253.116 133.985 252.45C133.908 252.278 133.824 252.1 133.747 251.928C133.514 251.418 133.275 250.907 133.031 250.402C132.937 250.202 132.837 250.008 132.742 249.808C132.443 249.209 132.137 248.609 131.815 248.016C131.782 247.955 131.754 247.894 131.721 247.833C131.372 247.183 131.005 246.545 130.633 245.907C130.528 245.724 130.417 245.546 130.312 245.368C130.023 244.891 129.729 244.414 129.435 243.942C129.324 243.765 129.213 243.587 129.096 243.409C128.697 242.793 128.291 242.177 127.87 241.578C127.836 241.528 127.798 241.478 127.759 241.423C127.37 240.868 126.976 240.324 126.571 239.786C126.438 239.614 126.305 239.436 126.177 239.264C125.839 238.82 125.494 238.381 125.145 237.949C121.216 233.093 116.665 228.98 111.809 226.172L115.511 224.019Z" fill="#CE8D38"/>
<path d="M92.6128 224.302L96.3144 222.149C99.3445 220.384 103.102 219.868 107.308 220.756C109.894 221.3 112.647 222.377 115.505 224.019C120.261 226.766 124.723 230.762 128.597 235.485L124.895 237.638C121.021 232.915 116.559 228.92 111.803 226.172C108.945 224.53 106.187 223.453 103.607 222.909C99.4 222.021 95.6429 222.543 92.6128 224.302Z" fill="#FEDF64"/>
<path d="M113.047 303.806L112.819 385.613C112.864 385.547 112.914 385.48 112.958 385.419L114.212 383.238L114.423 306.376L113.047 303.806Z" fill="#CE8D38"/>
<path d="M106.82 377.55L105.56 374.969L105.604 293.85L106.864 296.214L106.82 377.55Z" fill="#CE8D38"/>
<path opacity="0.5" d="M84.8826 238.875C101.149 255.164 117.398 271.457 133.642 287.768C131.4 290.082 128.508 291.447 125.162 291.747L86.3144 252.899C85.3211 249.092 84.7605 245.296 84.7661 241.667C84.7605 240.696 84.8049 239.775 84.8826 238.875Z" fill="#FEDF64"/>
<path opacity="0.5" d="M93.5229 223.847L105.577 235.901L105.604 235.929C105.127 236.733 104.833 237.766 104.833 239.059C104.828 243.432 107.913 248.754 111.715 250.94C114.956 252.8 117.658 251.767 118.391 248.721L119.334 249.664L138.475 268.805C138.603 270.098 138.675 271.374 138.675 272.634C138.675 276.374 138.081 279.621 137.026 282.335L86.4805 231.789C87.9844 228.032 90.4151 225.334 93.5229 223.847Z" fill="#FEDF64"/>
<defs>
<linearGradient id="paint0_linear" x1="241.117" y1="407.022" x2="224.9" y2="407.022" gradientUnits="userSpaceOnUse">
<stop stop-color="#C9CDCE"/>
<stop offset="1" stop-color="#E6E6E6"/>
</linearGradient>
<linearGradient id="paint1_linear" x1="402.095" y1="355.406" x2="39.2896" y2="355.406" gradientUnits="userSpaceOnUse">
<stop stop-color="#FDFBFF"/>
<stop offset="1" stop-color="#FFFDFF"/>
</linearGradient>
<linearGradient id="paint2_linear" x1="318.504" y1="224.538" x2="403.41" y2="224.538" gradientUnits="userSpaceOnUse">
<stop stop-color="#C6CACB"/>
<stop offset="1" stop-color="#D7DADB"/>
</linearGradient>
<linearGradient id="paint3_linear" x1="238.048" y1="310.965" x2="178.585" y2="310.965" gradientUnits="userSpaceOnUse">
<stop stop-color="#D88F25"/>
<stop offset="1" stop-color="#EDA845"/>
</linearGradient>
<linearGradient id="paint4_linear" x1="181.879" y1="206.387" x2="158.424" y2="206.387" gradientUnits="userSpaceOnUse">
<stop stop-color="#B4B9B9"/>
<stop offset="1" stop-color="#D7DADB"/>
</linearGradient>
<linearGradient id="paint5_linear" x1="110.814" y1="284.08" x2="110.814" y2="320.189" gradientUnits="userSpaceOnUse">
<stop stop-color="#90A7B5"/>
<stop offset="1" stop-color="#ABC2CA"/>
</linearGradient>
</defs>
</svg>
