<svg width="24" height="24" viewBox="0 0 24 24" fill="none" xmlns="http://www.w3.org/2000/svg">
<path fill-rule="evenodd" clip-rule="evenodd" d="M4 12.0005C4 10.1545 4.635 8.45852 5.688 7.10352L16.897 18.3125C15.542 19.3665 13.846 20.0005 12 20.0005C7.589 20.0005 4 16.4115 4 12.0005ZM20 12C20 13.846 19.365 15.542 18.312 16.897L7.103 5.688C8.458 4.634 10.154 4 12 4C16.411 4 20 7.589 20 12ZM12 2C6.486 2 2 6.486 2 12C2 17.514 6.486 22 12 22C17.514 22 22 17.514 22 12C22 6.486 17.514 2 12 2Z" fill="#231F20"/>
<mask id="mask0_68_2132" style="mask-type:luminance" maskUnits="userSpaceOnUse" x="2" y="2" width="20" height="20">
<path fill-rule="evenodd" clip-rule="evenodd" d="M4 12.0005C4 10.1545 4.635 8.45852 5.688 7.10352L16.897 18.3125C15.542 19.3665 13.846 20.0005 12 20.0005C7.589 20.0005 4 16.4115 4 12.0005ZM20 12C20 13.846 19.365 15.542 18.312 16.897L7.103 5.688C8.458 4.634 10.154 4 12 4C16.411 4 20 7.589 20 12ZM12 2C6.486 2 2 6.486 2 12C2 17.514 6.486 22 12 22C17.514 22 22 17.514 22 12C22 6.486 17.514 2 12 2Z" fill="white"/>
</mask>
<g mask="url(#mask0_68_2132)">
<rect width="100" height="100" fill="#0D1C2E"/>
</g>
</svg>
