<svg width="16" height="16" viewBox="0 0 16 16" fill="none" xmlns="http://www.w3.org/2000/svg">
<g clip-path="url(#clip0_717_6277)">
<path d="M11.2731 9.38713L12.2331 10.3471C12.7379 9.65277 13.0058 8.81446 12.9974 7.95609C12.989 7.09771 12.7047 6.26481 12.1865 5.58046C12.0751 5.44255 11.9135 5.35454 11.7372 5.33578C11.5609 5.31703 11.3844 5.36907 11.2465 5.48046C11.1086 5.59186 11.0206 5.75347 11.0018 5.92975C10.983 6.10604 11.0351 6.28255 11.1465 6.42046C11.4593 6.8467 11.6384 7.3563 11.6609 7.88454C11.6835 8.41277 11.5485 8.93578 11.2731 9.38713Z" fill="black" fill-opacity="0.4"/>
<path d="M13.9999 7.99953C13.9859 9.08949 13.5622 10.1343 12.8132 10.9262L13.7599 11.8729C14.7571 10.8284 15.3196 9.44358 15.3332 7.99953C15.3209 7.12764 15.1133 6.26961 14.7256 5.48854C14.338 4.70747 13.7802 4.02325 13.0932 3.4862C13.0258 3.43017 12.948 3.38796 12.8643 3.36199C12.7805 3.33603 12.6925 3.3268 12.6052 3.33485C12.518 3.3429 12.4331 3.36806 12.3555 3.4089C12.278 3.44974 12.2092 3.50545 12.1532 3.57286C12.0972 3.64028 12.055 3.71806 12.029 3.80179C12.003 3.88551 11.9938 3.97353 12.0018 4.06081C12.0099 4.1481 12.0351 4.23295 12.0759 4.31051C12.1167 4.38807 12.1724 4.45683 12.2399 4.51286C12.7745 4.92611 13.2101 5.45367 13.5146 6.05694C13.8191 6.66021 13.9849 7.32393 13.9999 7.99953Z" fill="black" fill-opacity="0.4"/>
<path d="M10 8.11306V2.66639C10.001 2.54421 9.96845 2.42409 9.90583 2.31917C9.84321 2.21424 9.75296 2.12854 9.64494 2.07143C9.53691 2.01433 9.41527 1.988 9.2933 1.99535C9.17133 2.00269 9.05373 2.04341 8.95333 2.11306L6 4.13306L10 8.11306Z" fill="black" fill-opacity="0.4"/>
<path d="M3.15984 5.04688H1.33317C1.15636 5.04688 0.98679 5.11711 0.861766 5.24214C0.736742 5.36716 0.666504 5.53673 0.666504 5.71354V10.2869C0.666504 10.4637 0.736742 10.6333 0.861766 10.7583C0.98679 10.8833 1.15636 10.9535 1.33317 10.9535H4.6665L8.93984 13.8869C9.0569 13.9626 9.19375 14.0021 9.33317 14.0002C9.50998 14.0002 9.67955 13.93 9.80457 13.8049C9.9296 13.6799 9.99984 13.5104 9.99984 13.3335V11.8869L3.15984 5.04688Z" fill="black" fill-opacity="0.4"/>
<path d="M3.1398 2.19411C3.07764 2.13195 3.00385 2.08264 2.92263 2.049C2.84142 2.01536 2.75437 1.99805 2.66646 1.99805C2.57856 1.99805 2.49151 2.01536 2.4103 2.049C2.32908 2.08264 2.25529 2.13195 2.19313 2.19411C2.0676 2.31964 1.99707 2.48991 1.99707 2.66744C1.99707 2.84498 2.0676 3.01524 2.19313 3.14077L12.8598 13.8074C12.9218 13.8699 12.9955 13.9195 13.0767 13.9534C13.158 13.9872 13.2451 14.0046 13.3331 14.0046C13.4211 14.0046 13.5083 13.9872 13.5895 13.9534C13.6708 13.9195 13.7445 13.8699 13.8065 13.8074C13.8689 13.7455 13.9185 13.6717 13.9524 13.5905C13.9862 13.5093 14.0037 13.4221 14.0037 13.3341C14.0037 13.2461 13.9862 13.159 13.9524 13.0777C13.9185 12.9965 13.8689 12.9227 13.8065 12.8608L3.1398 2.19411Z" fill="black" fill-opacity="0.4"/>
</g>
<defs>
<clipPath id="clip0_717_6277">
<rect width="16" height="16" fill="white"/>
</clipPath>
</defs>
</svg>
